<svg width="191" height="38" viewBox="0 0 191 38" fill="none" xmlns="http://www.w3.org/2000/svg">
<path d="M32.4842 2.36399C33.116 2.38553 33.6814 2.58118 34.1373 2.90785C34.5717 3.23452 34.8337 3.66889 34.8553 4.14813C34.8983 5.01866 34.9647 5.88919 35.0078 6.75972C35.2035 10.59 35.2914 14.4401 35.2914 18.2489C35.2914 22.9264 35.1389 27.6704 34.8571 32.3281C34.8355 32.7858 34.5735 33.2417 34.1391 33.5684C33.7047 33.8951 33.116 34.0907 32.486 34.1123C22.6499 34.482 12.6631 34.482 2.80544 34.1123C2.17363 34.0907 1.60823 33.8951 1.15233 33.5684C0.717962 33.2417 0.455905 32.8074 0.434367 32.3281C0.150772 27.6506 0 22.9067 0 18.2489C0 14.4401 0.0861554 10.59 0.283595 6.75972C0.326673 5.88919 0.36975 5.01866 0.436162 4.14813C0.4577 3.69043 0.719757 3.25606 1.15412 2.90785C1.58849 2.58118 2.17722 2.38553 2.80723 2.36399C12.6433 1.99424 22.6302 1.99424 32.4878 2.36399H32.4842Z" fill="#D53B2F"/>
<path d="M71.2811 2.36399C71.9129 2.38553 72.4783 2.58118 72.9342 2.90785C73.3685 3.23452 73.6306 3.66889 73.6521 4.14813C73.6952 5.01866 73.7616 5.88919 73.8047 6.75972C74.0003 10.59 74.0883 14.4401 74.0883 18.2489C74.0883 22.9264 73.9357 27.6704 73.6539 32.3281C73.6324 32.7858 73.3703 33.2417 72.936 33.5684C72.5016 33.8951 71.9129 34.0907 71.2829 34.1123C61.4468 34.482 51.4599 34.482 41.6023 34.1123C40.9705 34.0907 40.4051 33.8951 39.9492 33.5684C39.5148 33.2417 39.2528 32.8074 39.2312 32.3281C38.9476 27.6506 38.7969 22.9067 38.7969 18.2489C38.7969 14.4401 38.883 10.59 39.0805 6.75972C39.1235 5.88919 39.1666 5.01866 39.233 4.14813C39.2546 3.69043 39.5166 3.25606 39.951 2.90785C40.3854 2.58118 40.9741 2.38553 41.6041 2.36399C51.4402 1.99424 61.427 1.99424 71.2847 2.36399H71.2811Z" fill="#A3A3A3"/>
<path d="M17.6446 8.06636C20.4734 8.06636 23.2806 8.13098 26.1094 8.26201C27.872 8.34816 29.2649 9.74101 29.351 11.5036C29.5682 15.9855 29.5682 20.4692 29.351 24.951C29.2649 26.7136 27.8505 28.1065 26.1094 28.1926C23.2806 28.3237 20.4734 28.3883 17.6446 28.3883C14.8159 28.3883 12.0086 28.3237 9.17988 28.1926C7.41728 28.1065 6.02443 26.7136 5.93828 24.951C5.72109 20.4692 5.72109 15.9855 5.93828 11.5036C6.02443 9.74101 7.43882 8.34816 9.17988 8.26201C11.9871 8.13098 14.8159 8.06636 17.6446 8.06636ZM9.28937 10.5685C9.00577 10.59 8.74551 10.6995 8.54986 10.8951C8.35422 11.0908 8.24473 11.3528 8.22319 11.6346C8.00601 16.0088 8.00601 20.4692 8.22319 24.8433C8.24473 25.1269 8.35422 25.3872 8.54986 25.5828C8.74551 25.7785 9.00757 25.888 9.28937 25.9095C12.0535 26.0405 14.8823 26.1052 17.6446 26.1052C20.407 26.1052 23.2376 26.0405 25.9999 25.9095C26.2835 25.888 26.5438 25.7785 26.7394 25.5828C26.9351 25.3872 27.0446 25.1251 27.0661 24.8433C27.2833 20.4692 27.2833 16.0088 27.0661 11.6346C27.0446 11.351 26.9351 11.0908 26.7394 10.8951C26.5438 10.6995 26.2817 10.59 25.9999 10.5685C23.2358 10.4374 20.407 10.3728 17.6446 10.3728C14.8823 10.3728 12.0517 10.4374 9.28937 10.5685Z" fill="white"/>
<path d="M69.3323 25.8772H69.3341C69.7362 25.8772 70.0629 26.2039 70.0629 26.6059V27.4836C70.0629 27.8857 69.7362 28.2124 69.3341 28.2124H44.5285C44.1265 28.2124 43.7998 27.8857 43.7998 27.4836V26.6059C43.7998 26.2039 44.1265 25.8772 44.5285 25.8772C44.9306 25.8772 45.2573 25.5505 45.2573 25.1485V11.6436C45.347 9.86484 46.774 8.44328 48.5527 8.36071H67.8749C68.2769 8.36071 68.6036 8.68738 68.6036 9.08944V25.1485C68.6036 25.5505 68.9303 25.8772 69.3323 25.8772ZM66.2684 25.1485V11.421C66.2684 11.019 65.9417 10.6923 65.5397 10.6923H48.6586C48.3804 10.7049 48.1166 10.8215 47.9173 11.019C47.7181 11.2164 47.6014 11.4803 47.5871 11.7603V25.1485C47.5871 25.5505 47.9137 25.8772 48.3158 25.8772H65.5379C65.94 25.8772 66.2666 25.5505 66.2666 25.1485H66.2684Z" fill="white"/>
<path d="M96.2254 14.5047C96.1608 15.806 95.1162 16.847 93.8149 16.9063C91.7238 17.0014 89.6345 17.0499 87.5435 17.0499C85.4524 17.0499 83.3631 17.0014 81.2721 16.9063C79.9708 16.847 78.9261 15.806 78.8615 14.5047C78.6946 11.1841 78.6946 7.86353 78.8615 4.54116C78.9261 3.23985 79.9708 2.19881 81.2721 2.13958C83.3613 2.04445 85.4524 1.99599 87.5435 1.99599C89.6345 1.99599 91.7238 2.04445 93.8149 2.13958C95.1162 2.19881 96.1608 3.23985 96.2254 4.54116C96.3924 7.86173 96.3924 11.1841 96.2254 14.5047ZM94.5185 4.62732C94.5077 4.4227 94.4233 4.23064 94.278 4.08525C94.1326 3.93987 93.9405 3.85551 93.7359 3.84653C91.6807 3.7532 89.5986 3.70474 87.5435 3.70474C85.4883 3.70474 83.4062 3.7532 81.3511 3.84653C81.1464 3.85551 80.9544 3.93987 80.809 4.08525C80.6636 4.23064 80.5775 4.4227 80.5685 4.62732C80.4051 7.87609 80.4051 11.1715 80.5685 14.4203C80.5792 14.6249 80.6636 14.817 80.809 14.9624C80.9544 15.1078 81.1464 15.1921 81.3511 15.2011C83.4062 15.2962 85.4883 15.3429 87.5435 15.3429C89.5986 15.3429 91.6807 15.2944 93.7359 15.2011C93.9405 15.1921 94.1326 15.1078 94.278 14.9624C94.4233 14.817 94.5095 14.6249 94.5185 14.4203C94.6818 11.1715 94.6818 7.87789 94.5185 4.62732Z" fill="white"/>
<path d="M115.632 3.10702V15.9388C115.632 16.4055 115.253 16.7824 114.788 16.7824H114.768C114.302 16.7824 113.925 16.4037 113.925 15.9388V11.2218C113.925 10.7551 113.546 10.3782 113.081 10.3782H101.107C100.641 10.3782 100.264 10.7569 100.264 11.2218V15.9388C100.264 16.4055 99.8849 16.7824 99.42 16.7824H99.4002C98.9336 16.7824 98.5566 16.4037 98.5566 15.9388V3.10702C98.5566 2.64034 98.9354 2.26341 99.4002 2.26341H99.42C99.8867 2.26341 100.264 2.64214 100.264 3.10702V7.82402C100.264 8.2907 100.642 8.66763 101.107 8.66763H113.081C113.548 8.66763 113.925 8.28891 113.925 7.82402V3.10702C113.925 2.64034 114.303 2.26341 114.768 2.26341H114.788C115.255 2.26341 115.632 2.64214 115.632 3.10702Z" fill="white"/>
<path d="M137.562 4.81575V7.82581C137.562 8.29249 137.941 8.66941 138.406 8.66941H152.18C152.647 8.66941 153.024 9.04814 153.024 9.51302V9.53276C153.024 9.99944 152.645 10.3764 152.18 10.3764H138.406C137.939 10.3764 137.562 10.7551 137.562 11.22V14.23C137.562 14.6967 137.941 15.0736 138.406 15.0736H152.18C152.647 15.0736 153.024 15.4524 153.024 15.9172V15.937C153.024 16.4037 152.645 16.7806 152.18 16.7806H136.697C136.23 16.7806 135.854 16.4019 135.854 15.937V3.10521C135.854 2.63853 136.232 2.2616 136.697 2.2616H152.18C152.647 2.2616 153.024 2.64033 153.024 3.10521V3.12495C153.024 3.59163 152.645 3.96856 152.18 3.96856H138.406C137.939 3.96856 137.562 4.34728 137.562 4.81217V4.81575Z" fill="white"/>
<path d="M171.51 2.65112V16.3786C171.51 16.5921 171.128 16.7645 170.658 16.7645C170.188 16.7645 169.805 16.5921 169.805 16.3786V3.97217H169.321L157.699 16.5275C157.566 16.6711 157.255 16.7645 156.912 16.7645H155.31C154.839 16.7645 154.457 16.5921 154.457 16.3786V2.65112C154.457 2.43753 154.839 2.26522 155.31 2.26522C155.78 2.26522 156.162 2.43753 156.162 2.65112V15.0575H156.731L168.269 2.50214C168.402 2.35855 168.712 2.26522 169.057 2.26522H170.658C171.128 2.26522 171.51 2.43753 171.51 2.65112Z" fill="white"/>
<path d="M171.51 20.1137V33.8411C171.51 34.0547 171.128 34.227 170.658 34.227C170.188 34.227 169.805 34.0547 169.805 33.8411V21.4348H169.321L157.699 33.9901C157.566 34.1337 157.255 34.227 156.912 34.227H155.31C154.839 34.227 154.457 34.0547 154.457 33.8411V20.1137C154.457 19.9001 154.839 19.7278 155.31 19.7278C155.78 19.7278 156.162 19.9001 156.162 20.1137V32.5201H156.731L168.269 19.9647C168.402 19.8211 168.712 19.7278 169.057 19.7278H170.658C171.128 19.7278 171.51 19.9001 171.51 20.1137Z" fill="white"/>
<path d="M160.587 1.66374e-05H160.662C160.917 1.66374e-05 161.141 0.141813 161.28 0.355407C161.316 0.409254 161.355 0.459511 161.402 0.506178C161.565 0.67131 161.784 0.768235 162.016 0.779005H163.731C163.963 0.768235 164.18 0.67131 164.345 0.506178C164.392 0.459511 164.431 0.409254 164.467 0.355407C164.606 0.141813 164.83 -0.00177827 165.085 1.66374e-05H165.162C165.713 1.66374e-05 166.052 0.601309 165.772 1.07875C165.374 1.75902 164.652 2.22211 163.809 2.26698H161.938C161.097 2.2239 160.375 1.76082 159.977 1.08055C159.697 0.604897 160.034 0.00360546 160.587 0.00181056V1.66374e-05Z" fill="#D53B2F"/>
<path d="M190.023 3.10702V15.9388C190.023 16.4055 189.644 16.7824 189.179 16.7824H189.16C188.693 16.7824 188.316 16.4037 188.316 15.9388V4.81576C188.316 4.34909 187.937 3.97216 187.472 3.97216H175.499C175.032 3.97216 174.655 4.35088 174.655 4.81576V15.9388C174.655 16.4055 174.276 16.7824 173.811 16.7824H173.792C173.325 16.7824 172.948 16.4037 172.948 15.9388V3.97036H172.946V3.10702C172.946 2.64034 173.325 2.26341 173.79 2.26341H189.183C189.65 2.26341 190.027 2.64214 190.027 3.10702H190.023Z" fill="white"/>
<path d="M96.6159 32.5363C96.9103 32.5363 97.149 32.775 97.149 33.0693V33.7119C97.149 34.0063 96.9103 34.245 96.6159 34.245H78.4677C78.1733 34.245 77.9346 34.0063 77.9346 33.7119V33.0693C77.9346 32.775 78.1733 32.5363 78.4677 32.5363C78.762 32.5363 79.0007 32.2975 79.0007 32.0032V22.1222C79.0654 20.8209 80.11 19.7799 81.4113 19.7206H95.548C95.8423 19.7206 96.0811 19.9594 96.0811 20.2537V32.0032C96.0811 32.2975 96.3198 32.5363 96.6141 32.5363H96.6159ZM94.3741 32.0032V21.9607C94.3741 21.6663 94.1354 21.4276 93.841 21.4276H81.4903C81.2857 21.4366 81.0936 21.5209 80.9482 21.6663C80.8028 21.8117 80.7167 22.0038 80.7077 22.2084V32.0032C80.7077 32.2975 80.9464 32.5363 81.2408 32.5363H93.841C94.1354 32.5363 94.3741 32.2975 94.3741 32.0032Z" fill="white"/>
<path d="M115.634 20.575V33.3906C115.634 33.8609 115.251 34.2432 114.781 34.2432H114.778C114.307 34.2432 113.925 33.8609 113.925 33.3906V21.4312H113.44L101.833 33.9704C101.671 34.1445 101.445 34.2432 101.206 34.2432H99.4024C98.9321 34.2432 98.5498 33.8609 98.5498 33.3906V20.575C98.5498 20.1048 98.9321 19.7224 99.4024 19.7224H99.406C99.8762 19.7224 100.259 20.1048 100.259 20.575V32.5345H100.829L112.353 19.9989C112.514 19.823 112.742 19.7224 112.981 19.7224H114.783C115.253 19.7224 115.636 20.1048 115.636 20.575H115.634Z" fill="white"/>
<path d="M133.764 26.2021C134.132 26.6185 134.365 27.1588 134.396 27.7511V32.0624C134.331 33.3638 133.286 34.4048 131.985 34.464C129.894 34.561 127.876 34.6076 125.785 34.6076C123.694 34.6076 121.605 34.5592 119.514 34.464C118.211 34.4048 117.168 33.3584 117.103 32.0553C117.096 31.9027 117.089 31.7519 117.082 31.5994C117.06 31.1147 117.45 30.7109 117.936 30.7109C118.392 30.7109 118.769 31.0699 118.789 31.524C118.796 31.6658 118.801 31.8076 118.809 31.9512C118.816 32.0948 118.848 32.2276 118.918 32.3478C119.063 32.5973 119.318 32.7463 119.593 32.7589C121.648 32.854 123.73 32.9007 125.785 32.9007C127.841 32.9007 129.851 32.8522 131.906 32.7589C132.111 32.7499 132.303 32.6655 132.448 32.5201C132.593 32.3748 132.68 32.1827 132.689 31.9781V27.8372C132.678 27.6326 132.593 27.4406 132.448 27.2952C132.303 27.1498 132.111 27.0654 131.906 27.0565L123.506 27.0798C123.034 27.0798 122.65 26.6975 122.65 26.2254V26.2039C122.65 25.7318 123.032 25.3495 123.504 25.3495H131.908C132.111 25.3387 132.303 25.2544 132.446 25.1108C132.592 24.9654 132.678 24.7733 132.687 24.5687V22.1851C132.678 21.9805 132.593 21.7884 132.448 21.643C132.303 21.4976 132.111 21.4133 131.906 21.4043C129.851 21.3092 127.841 21.2625 125.785 21.2625C123.73 21.2625 121.666 21.3092 119.62 21.4043C119.482 21.4115 119.343 21.442 119.225 21.512C118.976 21.6574 118.825 21.9105 118.81 22.1869C118.803 22.3359 118.796 22.4848 118.789 22.6338C118.767 23.0897 118.392 23.4487 117.936 23.4487C117.452 23.4487 117.06 23.0448 117.082 22.5602C117.089 22.4094 117.096 22.2587 117.103 22.1079C117.168 20.8048 118.211 19.7584 119.514 19.6991C121.605 19.604 123.694 19.5555 125.785 19.5555C127.876 19.5555 129.894 19.604 131.985 19.6991C133.286 19.7584 134.331 20.7994 134.396 22.1007V24.6549C134.363 25.2472 134.132 25.7857 133.764 26.2021Z" fill="white"/>
<path d="M190.023 20.566V33.475C190.023 33.9417 189.644 34.3186 189.18 34.3186H189.16C188.693 34.3186 188.316 33.9399 188.316 33.475V28.7239C188.316 28.2572 187.937 27.8803 187.473 27.8803H175.499C175.032 27.8803 174.655 28.259 174.655 28.7239V33.475C174.655 33.9417 174.276 34.3186 173.812 34.3186H173.792C173.325 34.3186 172.948 33.9399 172.948 33.475V20.566C172.948 20.0994 173.327 19.7224 173.792 19.7224H173.812C174.278 19.7224 174.655 20.1012 174.655 20.566V25.3172C174.655 25.7838 175.034 26.1608 175.499 26.1608H187.473C187.939 26.1608 188.316 25.782 188.316 25.3172V20.566C188.316 20.0994 188.695 19.7224 189.16 19.7224H189.18C189.646 19.7224 190.023 20.1012 190.023 20.566Z" fill="white"/>
<path d="M133.575 2.2598H118.223C117.757 2.2598 117.38 2.63852 117.38 3.1034C117.38 3.56828 117.755 3.94521 118.22 3.94701L124.188 3.97034C124.653 3.97214 125.028 4.34907 125.028 4.81395V15.9406C125.028 16.4072 125.407 16.7842 125.872 16.7842H125.891C126.358 16.7842 126.735 16.4054 126.735 15.9406V4.81395C126.735 4.34907 127.11 3.97214 127.575 3.97034L133.575 3.94701C134.04 3.94521 134.415 3.56828 134.415 3.1034C134.415 2.63673 134.037 2.2598 133.572 2.2598H133.575Z" fill="white"/>
<path d="M152.128 19.7224H150.324C150.087 19.7224 149.859 19.8212 149.697 19.9953L136.088 32.8037C135.812 33.0496 135.699 33.4445 135.841 33.7855C136.079 34.3617 136.785 34.5017 137.221 34.1158L142.031 29.3198C142.254 29.1224 142.543 29.0147 142.839 29.0147H150.537C150.941 29.0147 151.27 29.3431 151.27 29.747V33.466C151.27 33.9363 151.652 34.3186 152.122 34.3186H152.126C152.596 34.3186 152.978 33.9363 152.978 33.466V20.575C152.978 20.1048 152.596 19.7224 152.126 19.7224H152.128ZM145.048 26.6616L150.686 21.5048C150.751 21.4473 150.833 21.4168 150.92 21.4168C151.113 21.4168 151.271 21.5748 151.271 21.7686V26.9254C151.271 27.1192 151.113 27.2772 150.92 27.2772H145.282C144.957 27.2772 144.806 26.8751 145.048 26.6616Z" fill="white"/>
<path d="M165.165 37.3269H165.089C164.834 37.3269 164.61 37.1851 164.472 36.9715C164.436 36.9176 164.396 36.8674 164.35 36.8207C164.186 36.6556 163.967 36.5587 163.736 36.5479H162.02C161.788 36.5587 161.571 36.6556 161.406 36.8207C161.359 36.8674 161.32 36.9176 161.284 36.9715C161.146 37.1851 160.922 37.3287 160.667 37.3269H160.589C160.038 37.3269 159.699 36.7256 159.979 36.2481C160.378 35.5679 161.099 35.1048 161.943 35.0599H163.813C164.655 35.103 165.376 35.5661 165.775 36.2463C166.055 36.722 165.717 37.3233 165.165 37.3251V37.3269Z" fill="#D53B2F"/>
</svg>
