<svg width="206" height="35" viewBox="0 0 206 35" fill="none" xmlns="http://www.w3.org/2000/svg">
<g style="mix-blend-mode:luminosity">
<path d="M97.7091 0.111816C100.02 0.111816 102.33 0.158971 104.641 0.276857C106.079 0.347589 107.234 1.50287 107.305 2.94108C107.494 6.61913 107.494 10.2736 107.305 13.9517C107.234 15.3899 106.079 16.5452 104.641 16.6159C102.33 16.7102 100.02 16.7809 97.7091 16.7809C95.3985 16.7809 93.0879 16.7338 90.7774 16.6159C89.3392 16.5452 88.1839 15.3899 88.1131 13.9517C87.9245 10.2736 87.9245 6.61913 88.1131 2.94108C88.1839 1.50287 89.3392 0.347589 90.7774 0.276857C93.0879 0.158971 95.3985 0.111816 97.7091 0.111816ZM90.8481 2.16304C90.6123 2.16304 90.4001 2.25734 90.2587 2.42239C90.0936 2.58743 89.9993 2.79962 89.9993 3.01182C89.8107 6.59556 89.8107 10.25 89.9993 13.8338C89.9993 14.0695 90.1172 14.2817 90.2587 14.4232C90.4237 14.5882 90.6359 14.6825 90.8481 14.6825C93.1115 14.7769 95.4221 14.8476 97.6855 14.8476C99.9489 14.8476 102.259 14.8004 104.523 14.6825C104.759 14.6825 104.971 14.5882 105.112 14.4232C105.277 14.2582 105.372 14.046 105.372 13.8338C105.56 10.25 105.56 6.59556 105.372 3.01182C105.372 2.77604 105.277 2.56385 105.112 2.42239C104.947 2.25734 104.735 2.16304 104.523 2.16304C102.259 2.06873 99.9489 1.998 97.6855 1.998C95.4221 1.998 93.1351 2.04515 90.8481 2.16304Z" fill="white"/>
<path d="M130.387 0.418945V16.475H127.039L113.93 2.30512H113.388V16.475H111.502V0.418945H114.85L127.865 14.5889H128.501V0.418945H130.387Z" fill="white"/>
<path d="M148.235 2.30512H141.633V16.475H139.747V2.30512H133.146V0.418945H148.235V2.30512Z" fill="white"/>
<path d="M162.168 13.0092H150.615L149.036 16.475H146.961L154.317 0.418945H158.467L165.823 16.475H163.748L162.168 13.0092ZM161.296 11.0994L157.264 2.28155H155.543L151.511 11.0994H161.296Z" fill="white"/>
<path d="M187.42 7.70431C187.349 9.14252 186.194 10.2978 184.755 10.3685H170.42V16.475H168.534V0.418945H184.779C186.217 0.489677 187.372 1.64496 187.443 3.08317L187.42 7.70431ZM185.533 7.61V3.17748C185.533 2.94171 185.439 2.72951 185.274 2.58805C185.109 2.42301 184.897 2.3287 184.685 2.3287H170.444V8.45878L184.685 8.48236C184.92 8.48236 185.133 8.38805 185.274 8.22301C185.439 8.03439 185.533 7.8222 185.533 7.61Z" fill="white"/>
<path d="M192.795 2.30512V7.49212H205.998V9.37829H192.795V14.5653H205.998V16.4515H190.885V0.418945H205.998V2.30512H192.795Z" fill="white"/>
<path d="M88.3959 20.3886H87.1699V18.5024H105.395C106.904 18.5732 108.107 19.7285 108.177 21.1667V31.9179C108.107 33.3561 106.88 34.5114 105.395 34.5821H88.3959V20.3886ZM106.22 21.261C106.197 21.0252 106.102 20.813 105.937 20.6715C105.772 20.5065 105.537 20.4122 105.301 20.4122H90.3764V32.6724H105.324C105.56 32.6724 105.772 32.578 105.961 32.413C106.126 32.248 106.22 32.0358 106.244 31.8236V21.261H106.22Z" fill="white"/>
<path d="M114.378 20.3886V25.5756H128.218V27.4618H114.378V32.6488H128.218V34.535H112.397V18.5024H128.218V20.3886H114.378Z" fill="white"/>
<path d="M134.489 27.4852C132.98 27.4145 131.778 26.2592 131.707 24.821V22.5104C131.731 22.0153 131.754 21.5202 131.778 21.0251C131.849 19.5869 133.075 18.4316 134.56 18.3608C136.989 18.2665 139.181 18.1958 141.586 18.1958C143.991 18.1958 146.207 18.243 148.612 18.3608C150.121 18.4316 151.324 19.5869 151.394 21.0251C151.418 21.5202 151.441 22.0153 151.465 22.5104H149.485C149.461 22.0389 149.437 21.5909 149.414 21.1194C149.39 20.8836 149.296 20.6714 149.131 20.5299C148.966 20.3649 148.73 20.2706 148.494 20.2706C146.113 20.1763 143.92 20.1056 141.539 20.1056C139.158 20.1056 136.965 20.1527 134.584 20.2706C134.348 20.2706 134.136 20.3649 133.947 20.5299C133.782 20.695 133.688 20.9072 133.664 21.1194C133.641 21.5909 133.617 22.0389 133.593 22.5104V24.7267C133.617 24.9625 133.711 25.1747 133.876 25.3161C134.041 25.4812 134.277 25.5755 134.513 25.5755H148.636C150.145 25.6462 151.347 26.8015 151.418 28.2397V30.5503C151.394 31.0454 151.371 31.5405 151.347 32.0356C151.276 33.4739 150.05 34.6291 148.565 34.6999C146.137 34.7942 143.944 34.8649 141.539 34.8649C139.111 34.8649 136.918 34.8178 134.513 34.6999C133.004 34.6291 131.802 33.4739 131.731 32.0356C131.707 31.5405 131.684 31.0454 131.66 30.5503H133.641C133.664 31.0218 133.688 31.4698 133.711 31.9413C133.735 32.1771 133.829 32.3893 133.994 32.5308C134.159 32.6958 134.395 32.7901 134.631 32.7901C137.012 32.8844 139.205 32.9552 141.586 32.9552C143.967 32.9552 146.16 32.908 148.541 32.7901C148.777 32.7901 148.989 32.6958 149.178 32.5308C149.343 32.3657 149.437 32.1535 149.461 31.9413C149.485 31.4698 149.508 31.0218 149.532 30.5503V28.334C149.508 28.0982 149.414 27.886 149.249 27.7446C149.084 27.5795 148.848 27.4852 148.612 27.4852H134.489Z" fill="white"/>
<path d="M155.543 34.5585V18.5024H157.523V34.5585H155.543Z" fill="white"/>
<path d="M168.487 27.5088V25.5991H179.332C180.841 25.6698 182.044 26.8251 182.138 28.2633V30.5503C182.114 31.0454 182.091 31.5405 182.067 32.0356C181.997 33.4739 180.771 34.6291 179.262 34.6999C176.833 34.8178 174.428 34.8649 172 34.8649C169.571 34.8649 167.166 34.8178 164.738 34.6999C163.229 34.6291 162.027 33.4739 161.956 32.0356C161.767 28.3576 161.767 24.7031 161.956 21.0251C162.027 19.5869 163.253 18.4316 164.738 18.3608C167.166 18.2665 169.571 18.1958 172 18.1958C174.428 18.1958 176.833 18.243 179.262 18.3608C180.771 18.4316 181.973 19.5869 182.044 21.0251C182.067 21.5202 182.091 22.0153 182.114 22.5104H180.134C180.11 22.0389 180.087 21.5673 180.063 21.1194C180.04 20.8836 179.945 20.6714 179.78 20.5299C179.615 20.3649 179.379 20.2706 179.144 20.2706C176.762 20.1763 174.358 20.1056 171.976 20.1056C169.595 20.1056 167.19 20.1527 164.809 20.2706C164.573 20.2706 164.361 20.3649 164.172 20.5299C164.007 20.695 163.913 20.9072 163.889 21.1194C163.701 24.7031 163.701 28.3576 163.889 31.9413C163.913 32.1771 164.007 32.3893 164.172 32.5308C164.337 32.6958 164.573 32.7901 164.809 32.7901C167.19 32.8844 169.595 32.9552 171.976 32.9552C174.358 32.9552 176.762 32.908 179.144 32.7901C179.379 32.7901 179.592 32.6958 179.78 32.5308C179.945 32.3657 180.04 32.1535 180.063 31.9413C180.087 31.4698 180.11 31.0218 180.134 30.5503V28.3576C180.11 28.1218 180.016 27.9096 179.851 27.7682C179.686 27.6031 179.45 27.5088 179.214 27.5088H168.487Z" fill="white"/>
<path d="M205.975 18.5024V34.5585H202.462L188.716 20.3886H188.15V34.5585H186.193V18.5024H189.706L203.358 32.6724H204.018V18.5024H205.975Z" fill="white"/>
<path d="M35.2008 0.30061C35.8846 0.324187 36.4976 0.536382 36.9927 0.890041C37.4642 1.2437 37.7472 1.71524 37.7707 2.23394C37.8179 3.17703 37.8886 4.12012 37.9358 5.06321C38.148 9.21281 38.2423 13.386 38.2423 17.512C38.2423 22.5811 38.0772 27.7209 37.7707 32.7665C37.7472 33.2616 37.4642 33.7567 36.9927 34.1104C36.5211 34.464 35.8846 34.6762 35.2008 34.6998C24.5439 35.1006 13.722 35.1006 3.04146 34.6998C2.35772 34.6762 1.74472 34.464 1.24959 34.1104C0.778049 33.7567 0.495122 33.2852 0.471545 32.7665C0.165041 27.6974 0 22.5575 0 17.512C0 13.386 0.094309 9.21281 0.306504 5.06321C0.353659 4.12012 0.400813 3.17703 0.471545 2.23394C0.495122 1.73882 0.778049 1.26728 1.24959 0.890041C1.72114 0.536382 2.35772 0.324187 3.04146 0.30061C13.6984 -0.100203 24.5203 -0.100203 35.2008 0.30061Z" fill="#EF5345"/>
<path d="M77.2389 0.30061C77.9226 0.324187 78.5356 0.536382 79.0308 0.890041C79.5023 1.2437 79.7852 1.71524 79.8088 2.23394C79.856 3.17703 79.9267 4.12012 79.9739 5.06321C80.1861 9.21281 80.2804 13.386 80.2804 17.512C80.2804 22.5811 80.1153 27.7209 79.8088 32.7665C79.7852 33.2616 79.5023 33.7567 79.0308 34.1104C78.5592 34.464 77.9226 34.6762 77.2389 34.6998C66.582 35.1006 55.76 35.1006 45.0795 34.6998C44.3958 34.6762 43.7828 34.464 43.2877 34.1104C42.8161 33.7567 42.5332 33.2852 42.5096 32.7665C42.2031 27.6974 42.0381 22.5575 42.0381 17.512C42.0381 13.386 42.1324 9.21281 42.3446 5.06321C42.3917 4.12012 42.4389 3.17703 42.5096 2.23394C42.5332 1.73882 42.8161 1.26728 43.2877 0.890041C43.7592 0.536382 44.3958 0.324187 45.0795 0.30061C55.7365 -0.100203 66.5584 -0.100203 77.2389 0.30061Z" fill="#D1D1D1"/>
<path d="M19.1211 6.47803C22.1862 6.47803 25.2277 6.54876 28.2927 6.69022C30.2025 6.78453 31.7114 8.29347 31.8057 10.2032C32.0415 15.0601 32.0415 19.9171 31.8057 24.774C31.7114 26.6837 30.1789 28.1927 28.2927 28.287C25.2277 28.4284 22.1862 28.4992 19.1211 28.4992C16.0561 28.4992 13.0146 28.4284 9.9496 28.287C8.03985 28.1927 6.5309 26.6837 6.43659 24.774C6.20082 19.9171 6.20082 15.0601 6.43659 10.2032C6.5309 8.29347 8.06342 6.78453 9.9496 6.69022C12.9911 6.54876 16.0561 6.47803 19.1211 6.47803ZM10.0675 9.18941C9.76099 9.21299 9.47806 9.33087 9.26586 9.54307C9.05367 9.75526 8.93578 10.0382 8.9122 10.3447C8.67643 15.0837 8.67643 19.9171 8.9122 24.6561C8.93578 24.9626 9.05367 25.2455 9.26586 25.4577C9.47806 25.6699 9.76099 25.7878 10.0675 25.8114C13.0618 25.9528 16.1268 26.0236 19.1211 26.0236C22.1155 26.0236 25.1805 25.9528 28.1748 25.8114C28.4813 25.7878 28.7642 25.6699 28.9764 25.4577C29.1886 25.2455 29.3065 24.9626 29.3301 24.6561C29.5659 19.9171 29.5659 15.0837 29.3301 10.3447C29.3065 10.0382 29.1886 9.75526 28.9764 9.54307C28.7642 9.33087 28.4813 9.21299 28.1748 9.18941C25.1805 9.04795 22.1155 8.97721 19.1211 8.97721C16.1268 8.97721 13.0618 9.04795 10.0675 9.18941Z" fill="white"/>
<path d="M49.4409 9.37761H47.8848V6.87842H70.8962C72.8059 6.97273 74.3148 8.48167 74.4092 10.3914V24.6085C74.3148 26.5183 72.7823 28.0272 70.8962 28.1215H49.4409V9.37761ZM71.91 24.467V10.5093C71.8864 10.2028 71.7685 9.91988 71.5563 9.70769C71.3441 9.49549 71.0612 9.37761 70.7547 9.35403H51.9165V25.5987H70.7547C71.0612 25.5752 71.3441 25.4573 71.5563 25.2451C71.7921 25.0565 71.91 24.7735 71.91 24.467Z" fill="white"/>
</g>
</svg>
