<svg width="206" height="35" viewBox="0 0 206 35" fill="none" xmlns="http://www.w3.org/2000/svg">
<g style="mix-blend-mode:luminosity">
<path d="M97.7091 0.111938C100.02 0.111938 102.33 0.159093 104.641 0.276979C106.079 0.347711 107.234 1.503 107.305 2.94121C107.494 6.61926 107.494 10.2737 107.305 13.9518C107.234 15.39 106.079 16.5453 104.641 16.616C102.33 16.7103 100.02 16.781 97.7091 16.781C95.3985 16.781 93.0879 16.7339 90.7774 16.616C89.3392 16.5453 88.1839 15.39 88.1131 13.9518C87.9245 10.2737 87.9245 6.61926 88.1131 2.94121C88.1839 1.503 89.3392 0.347711 90.7774 0.276979C93.0879 0.159093 95.3985 0.111938 97.7091 0.111938ZM90.8481 2.16316C90.6123 2.16316 90.4001 2.25747 90.2587 2.42251C90.0936 2.58755 89.9993 2.79974 89.9993 3.01194C89.8107 6.59568 89.8107 10.2501 89.9993 13.8339C89.9993 14.0697 90.1172 14.2819 90.2587 14.4233C90.4237 14.5884 90.6359 14.6827 90.8481 14.6827C93.1115 14.777 95.4221 14.8477 97.6855 14.8477C99.9489 14.8477 102.259 14.8006 104.523 14.6827C104.759 14.6827 104.971 14.5884 105.112 14.4233C105.277 14.2583 105.372 14.0461 105.372 13.8339C105.56 10.2501 105.56 6.59568 105.372 3.01194C105.372 2.77617 105.277 2.56397 105.112 2.42251C104.947 2.25747 104.735 2.16316 104.523 2.16316C102.259 2.06885 99.9489 1.99812 97.6855 1.99812C95.4221 1.99812 93.1351 2.04527 90.8481 2.16316Z" fill="#202020"/>
<path d="M130.387 0.418823V16.4749H127.039L113.93 2.305H113.388V16.4749H111.502V0.418823H114.85L127.865 14.5887H128.501V0.418823H130.387Z" fill="#202020"/>
<path d="M148.235 2.305H141.633V16.4749H139.747V2.305H133.146V0.418823H148.235V2.305Z" fill="#202020"/>
<path d="M162.168 13.0091H150.615L149.036 16.4749H146.961L154.317 0.418823H158.467L165.823 16.4749H163.748L162.168 13.0091ZM161.296 11.0993L157.264 2.28142H155.543L151.511 11.0993H161.296Z" fill="#202020"/>
<path d="M187.42 7.70419C187.349 9.1424 186.194 10.2977 184.755 10.3684H170.42V16.4749H168.534V0.418823H184.779C186.217 0.489555 187.372 1.64484 187.443 3.08305L187.42 7.70419ZM185.533 7.60988V3.17736C185.533 2.94159 185.439 2.72939 185.274 2.58793C185.109 2.42289 184.897 2.32858 184.685 2.32858H170.444V8.45866L184.685 8.48224C184.92 8.48224 185.133 8.38793 185.274 8.22289C185.439 8.03427 185.533 7.82208 185.533 7.60988Z" fill="#202020"/>
<path d="M192.795 2.305V7.49199H205.998V9.37817H192.795V14.5652H205.998V16.4513H190.885V0.418823H205.998V2.305H192.795Z" fill="#202020"/>
<path d="M88.3959 20.389H87.1699V18.5028H105.395C106.904 18.5735 108.107 19.7288 108.177 21.167V31.9183C108.107 33.3565 106.88 34.5118 105.395 34.5825H88.3959V20.389ZM106.22 21.2613C106.197 21.0256 106.102 20.8134 105.937 20.6719C105.772 20.5069 105.537 20.4126 105.301 20.4126H90.3764V32.6727H105.324C105.56 32.6727 105.772 32.5784 105.961 32.4134C106.126 32.2483 106.22 32.0361 106.244 31.8239V21.2613H106.22Z" fill="#202020"/>
<path d="M114.378 20.3887V25.5757H128.218V27.4619H114.378V32.6489H128.218V34.5351H112.397V18.5026H128.218V20.3887H114.378Z" fill="#202020"/>
<path d="M134.489 27.4855C132.98 27.4147 131.778 26.2595 131.707 24.8212V22.5107C131.731 22.0156 131.754 21.5204 131.778 21.0253C131.849 19.5871 133.075 18.4318 134.56 18.3611C136.989 18.2668 139.181 18.196 141.586 18.196C143.991 18.196 146.207 18.2432 148.612 18.3611C150.121 18.4318 151.324 19.5871 151.394 21.0253C151.418 21.5204 151.441 22.0156 151.465 22.5107H149.485C149.461 22.0391 149.437 21.5912 149.414 21.1196C149.39 20.8839 149.296 20.6717 149.131 20.5302C148.966 20.3652 148.73 20.2708 148.494 20.2708C146.113 20.1765 143.92 20.1058 141.539 20.1058C139.158 20.1058 136.965 20.153 134.584 20.2708C134.348 20.2708 134.136 20.3652 133.947 20.5302C133.782 20.6952 133.688 20.9074 133.664 21.1196C133.641 21.5912 133.617 22.0391 133.593 22.5107V24.7269C133.617 24.9627 133.711 25.1749 133.876 25.3164C134.041 25.4814 134.277 25.5757 134.513 25.5757H148.636C150.145 25.6465 151.347 26.8017 151.418 28.2399V30.5505C151.394 31.0456 151.371 31.5408 151.347 32.0359C151.276 33.4741 150.05 34.6294 148.565 34.7001C146.137 34.7944 143.944 34.8652 141.539 34.8652C139.111 34.8652 136.918 34.818 134.513 34.7001C133.004 34.6294 131.802 33.4741 131.731 32.0359C131.707 31.5408 131.684 31.0456 131.66 30.5505H133.641C133.664 31.0221 133.688 31.47 133.711 31.9416C133.735 32.1773 133.829 32.3895 133.994 32.531C134.159 32.696 134.395 32.7904 134.631 32.7904C137.012 32.8847 139.205 32.9554 141.586 32.9554C143.967 32.9554 146.16 32.9082 148.541 32.7904C148.777 32.7904 148.989 32.696 149.178 32.531C149.343 32.366 149.437 32.1538 149.461 31.9416C149.485 31.47 149.508 31.0221 149.532 30.5505V28.3343C149.508 28.0985 149.414 27.8863 149.249 27.7448C149.084 27.5798 148.848 27.4855 148.612 27.4855H134.489Z" fill="#202020"/>
<path d="M155.543 34.5587V18.5026H157.523V34.5587H155.543Z" fill="#202020"/>
<path d="M168.487 27.5091V25.5993H179.332C180.841 25.67 182.044 26.8253 182.138 28.2635V30.5505C182.114 31.0456 182.091 31.5408 182.067 32.0359C181.997 33.4741 180.771 34.6294 179.262 34.7001C176.833 34.818 174.428 34.8652 172 34.8652C169.571 34.8652 167.166 34.818 164.738 34.7001C163.229 34.6294 162.027 33.4741 161.956 32.0359C161.767 28.3578 161.767 24.7034 161.956 21.0253C162.027 19.5871 163.253 18.4318 164.738 18.3611C167.166 18.2668 169.571 18.196 172 18.196C174.428 18.196 176.833 18.2432 179.262 18.3611C180.771 18.4318 181.973 19.5871 182.044 21.0253C182.067 21.5204 182.091 22.0156 182.114 22.5107H180.134C180.11 22.0391 180.087 21.5676 180.063 21.1196C180.04 20.8839 179.945 20.6717 179.78 20.5302C179.615 20.3652 179.379 20.2708 179.144 20.2708C176.762 20.1765 174.358 20.1058 171.976 20.1058C169.595 20.1058 167.19 20.153 164.809 20.2708C164.573 20.2708 164.361 20.3652 164.172 20.5302C164.007 20.6952 163.913 20.9074 163.889 21.1196C163.701 24.7034 163.701 28.3578 163.889 31.9416C163.913 32.1773 164.007 32.3895 164.172 32.531C164.337 32.696 164.573 32.7904 164.809 32.7904C167.19 32.8847 169.595 32.9554 171.976 32.9554C174.358 32.9554 176.762 32.9082 179.144 32.7904C179.379 32.7904 179.592 32.696 179.78 32.531C179.945 32.366 180.04 32.1538 180.063 31.9416C180.087 31.47 180.11 31.0221 180.134 30.5505V28.3578C180.11 28.1221 180.016 27.9099 179.851 27.7684C179.686 27.6034 179.45 27.5091 179.214 27.5091H168.487Z" fill="#202020"/>
<path d="M205.975 18.5026V34.5587H202.462L188.716 20.3887H188.15V34.5587H186.193V18.5026H189.706L203.358 32.6725H204.018V18.5026H205.975Z" fill="#202020"/>
<path d="M35.2008 0.30061C35.8846 0.324187 36.4976 0.536382 36.9927 0.890041C37.4642 1.2437 37.7472 1.71524 37.7707 2.23394C37.8179 3.17703 37.8886 4.12012 37.9358 5.06321C38.148 9.21281 38.2423 13.386 38.2423 17.512C38.2423 22.5811 38.0772 27.7209 37.7707 32.7665C37.7472 33.2616 37.4642 33.7567 36.9927 34.1104C36.5211 34.464 35.8846 34.6762 35.2008 34.6998C24.5439 35.1006 13.722 35.1006 3.04146 34.6998C2.35772 34.6762 1.74472 34.464 1.24959 34.1104C0.778049 33.7567 0.495122 33.2852 0.471545 32.7665C0.165041 27.6974 0 22.5575 0 17.512C0 13.386 0.094309 9.21281 0.306504 5.06321C0.353659 4.12012 0.400813 3.17703 0.471545 2.23394C0.495122 1.73882 0.778049 1.26728 1.24959 0.890041C1.72114 0.536382 2.35772 0.324187 3.04146 0.30061C13.6984 -0.100203 24.5203 -0.100203 35.2008 0.30061Z" fill="#EF5345"/>
<path d="M77.2389 0.30061C77.9226 0.324187 78.5356 0.536382 79.0308 0.890041C79.5023 1.2437 79.7852 1.71524 79.8088 2.23394C79.856 3.17703 79.9267 4.12012 79.9739 5.06321C80.1861 9.21281 80.2804 13.386 80.2804 17.512C80.2804 22.5811 80.1153 27.7209 79.8088 32.7665C79.7852 33.2616 79.5023 33.7567 79.0308 34.1104C78.5592 34.464 77.9226 34.6762 77.2389 34.6998C66.582 35.1006 55.76 35.1006 45.0795 34.6998C44.3958 34.6762 43.7828 34.464 43.2877 34.1104C42.8161 33.7567 42.5332 33.2852 42.5096 32.7665C42.2031 27.6974 42.0381 22.5575 42.0381 17.512C42.0381 13.386 42.1324 9.21281 42.3446 5.06321C42.3917 4.12012 42.4389 3.17703 42.5096 2.23394C42.5332 1.73882 42.8161 1.26728 43.2877 0.890041C43.7592 0.536382 44.3958 0.324187 45.0795 0.30061C55.7365 -0.100203 66.5584 -0.100203 77.2389 0.30061Z" fill="#D1D1D1"/>
<path d="M19.1211 6.47803C22.1862 6.47803 25.2277 6.54876 28.2927 6.69022C30.2025 6.78453 31.7114 8.29347 31.8057 10.2032C32.0415 15.0601 32.0415 19.9171 31.8057 24.774C31.7114 26.6837 30.1789 28.1927 28.2927 28.287C25.2277 28.4284 22.1862 28.4992 19.1211 28.4992C16.0561 28.4992 13.0146 28.4284 9.9496 28.287C8.03985 28.1927 6.5309 26.6837 6.43659 24.774C6.20082 19.9171 6.20082 15.0601 6.43659 10.2032C6.5309 8.29347 8.06342 6.78453 9.9496 6.69022C12.9911 6.54876 16.0561 6.47803 19.1211 6.47803ZM10.0675 9.18941C9.76099 9.21299 9.47806 9.33087 9.26586 9.54307C9.05367 9.75526 8.93578 10.0382 8.9122 10.3447C8.67643 15.0837 8.67643 19.9171 8.9122 24.6561C8.93578 24.9626 9.05367 25.2455 9.26586 25.4577C9.47806 25.6699 9.76099 25.7878 10.0675 25.8114C13.0618 25.9528 16.1268 26.0236 19.1211 26.0236C22.1155 26.0236 25.1805 25.9528 28.1748 25.8114C28.4813 25.7878 28.7642 25.6699 28.9764 25.4577C29.1886 25.2455 29.3065 24.9626 29.3301 24.6561C29.5659 19.9171 29.5659 15.0837 29.3301 10.3447C29.3065 10.0382 29.1886 9.75526 28.9764 9.54307C28.7642 9.33087 28.4813 9.21299 28.1748 9.18941C25.1805 9.04795 22.1155 8.97721 19.1211 8.97721C16.1268 8.97721 13.0618 9.04795 10.0675 9.18941Z" fill="white"/>
<path d="M49.4409 9.37761H47.8848V6.87842H70.8962C72.8059 6.97273 74.3148 8.48167 74.4092 10.3914V24.6085C74.3148 26.5183 72.7823 28.0272 70.8962 28.1215H49.4409V9.37761ZM71.91 24.467V10.5093C71.8864 10.2028 71.7685 9.91988 71.5563 9.70769C71.3441 9.49549 71.0612 9.37761 70.7547 9.35403H51.9165V25.5987H70.7547C71.0612 25.5752 71.3441 25.4573 71.5563 25.2451C71.7921 25.0565 71.91 24.7735 71.91 24.467Z" fill="white"/>
</g>
</svg>
