<svg width="181" height="38" viewBox="0 0 181 38" fill="none" xmlns="http://www.w3.org/2000/svg">
<path fill-rule="evenodd" clip-rule="evenodd" d="M15.9998 3.5C14.8078 3.5 13.6485 3.6299 12.5315 3.87015V19.0107C12.5315 20.8661 14.0931 22.3793 16.0089 22.3793C17.9237 22.3793 19.4848 20.8661 19.4848 19.0116C19.4848 17.2294 18.0473 15.7665 16.2401 15.6501V12.9538C19.5795 13.0712 22.2667 15.7474 22.2667 19.0116C22.2667 22.3499 19.4555 25.0746 16.0089 25.0746C12.5608 25.0746 9.7501 22.3499 9.7501 19.0107V4.72683C9.35502 4.88932 8.96907 5.06951 8.59082 5.26319V19.0107C8.5913 22.9678 11.924 26.1948 16.0089 26.1948C20.0943 26.1948 23.4255 22.9678 23.4255 19.0116C23.4255 15.1291 20.2197 11.9496 16.2401 11.8299V9.13459C21.751 9.25517 26.206 13.6457 26.206 19.0116C26.206 24.4535 21.6251 28.8901 16.0089 28.8901C10.3913 28.8901 5.80892 24.4535 5.80892 19.0107V7.05106C2.26185 9.89257 0 14.1895 0 18.9991C0 27.559 7.16334 34.5 16.0002 34.5C24.8386 34.5 32 27.559 32 18.9991C32 10.4392 24.8386 3.5 15.9998 3.5Z" fill="#D91935"/>
<path d="M46.256 31V11.64L41.92 14.28V10.552L46.256 7.96H49.664V31H46.256ZM65.356 31.48C58.444 31.48 54.46 26.6 54.46 19.48C54.46 12.36 58.444 7.48 65.356 7.48C70.668 7.48 74.236 10.376 75.596 14.92L72.204 15.832C71.292 12.616 69.004 10.664 65.356 10.664C60.46 10.664 58.012 14.2 57.996 19.48C57.964 24.76 60.46 28.296 65.356 28.296C69.004 28.296 71.292 26.344 72.204 23.128L75.596 24.04C74.236 28.584 70.668 31.48 65.356 31.48ZM98.8013 18.824C101.089 19.8 102.337 21.832 102.337 24.28C102.337 28.344 99.8253 31 95.4413 31H85.5213V7.96H94.5773C98.9773 7.96 101.249 11.016 101.249 14.152C101.249 16.264 100.321 17.944 98.8013 18.824ZM88.9133 11.112V17.368H94.5293C96.3853 17.368 97.8253 16.2 97.8253 14.184C97.8253 12.392 96.5293 11.112 94.5293 11.112H88.9133ZM94.9293 27.816C97.2173 27.816 98.9133 26.456 98.9133 24.216C98.9133 22.12 97.4413 20.52 95.1373 20.52H88.9133V27.816H94.9293ZM105.841 31V7.96H109.185V31H105.841ZM119.734 31V11.112H112.07V7.96H130.742V11.112H123.078V31H119.734ZM150.599 31H146.775L142.759 22.728H136.647V31H133.303V7.96H142.615C143.063 7.96 143.783 7.992 144.391 8.088C148.247 8.68 150.167 11.608 150.167 15.336C150.167 18.408 148.855 20.936 146.247 22.072L150.599 31ZM136.647 11.112V19.56H142.487C142.903 19.56 143.463 19.528 143.943 19.416C145.991 18.92 146.759 17.032 146.759 15.336C146.759 13.64 145.991 11.752 143.943 11.272C143.463 11.144 142.903 11.112 142.487 11.112H136.647ZM154.435 31V7.96H157.779V31H154.435ZM160.664 31L168.52 19.336L160.872 7.96H164.968L170.584 16.504L176.168 7.96H180.28L172.632 19.336L180.472 31H176.376L170.584 22.184L164.776 31H160.664Z" fill="white"/>
</svg>
