<svg width="187" height="38" viewBox="0 0 187 38" fill="none" xmlns="http://www.w3.org/2000/svg">
<path d="M0 15.1333C0 11.5863 0 9.81283 0.69029 8.45806C1.29749 7.26637 2.26637 6.29749 3.45806 5.69029C4.81283 5 6.58633 5 10.1333 5H17.8667C21.4137 5 23.1872 5 24.5419 5.69029C25.7336 6.29749 26.7025 7.26637 27.3097 8.45806C28 9.81283 28 11.5863 28 15.1333V22.8667C28 26.4137 28 28.1872 27.3097 29.5419C26.7025 30.7336 25.7336 31.7025 24.5419 32.3097C23.1872 33 21.4137 33 17.8667 33H10.1333C6.58633 33 4.81283 33 3.45806 32.3097C2.26637 31.7025 1.29749 30.7336 0.69029 29.5419C0 28.1872 0 26.4137 0 22.8667V15.1333Z" fill="#330000"/>
<path d="M13.5686 22.5961H9.2297L8.3469 25.4088C8.3224 25.5133 8.2262 25.5873 8.1215 25.5821H5.92384C5.79851 25.5821 5.75469 25.5115 5.79236 25.3702L9.549 14.2736C9.5866 14.158 9.6242 14.0264 9.6617 13.8787C9.7109 13.6216 9.736 13.3604 9.7369 13.0985C9.7261 13.0211 9.7941 12.9527 9.8683 12.9635H12.8549C12.9424 12.9635 12.9924 12.9957 13.0051 13.0599L17.269 25.3895C17.3065 25.518 17.269 25.5822 17.1563 25.5821H14.7144C14.6288 25.5919 14.547 25.5332 14.5266 25.4473L13.5686 22.5961ZM9.9059 20.1687H12.8737C12.3861 18.5025 11.8358 16.8582 11.3898 15.1791C10.9086 16.8611 10.3836 18.5363 9.9059 20.1687Z" fill="#FF9A00"/>
<path d="M19.8048 15.0058C19.6132 15.0137 19.4222 14.98 19.2441 14.907C19.0661 14.834 18.9051 14.7232 18.7717 14.582C18.6387 14.4346 18.5353 14.2618 18.4676 14.0733C18.3999 13.8849 18.3692 13.6846 18.3772 13.4839C18.3704 13.2852 18.4045 13.0873 18.4773 12.9031C18.5502 12.7188 18.6601 12.5524 18.7999 12.4147C18.9383 12.2784 19.1017 12.1716 19.2807 12.1005C19.4596 12.0294 19.6505 11.9954 19.8423 12.0005C20.2932 12.0005 20.6469 12.1386 20.9036 12.4147C21.0332 12.5582 21.1339 12.7265 21.2 12.91C21.266 13.0934 21.2962 13.2885 21.2886 13.4839C21.2965 13.6853 21.2648 13.8864 21.1954 14.075C21.1261 14.2636 21.0204 14.436 20.8848 14.582C20.7431 14.7253 20.5739 14.8369 20.3881 14.9099C20.2022 14.9828 20.0036 15.0155 19.8048 15.0058ZM18.5087 25.3896V16.181C18.5087 16.0654 18.5586 16.0076 18.659 16.0076H20.9694C21.0694 16.0076 21.1195 16.0654 21.1196 16.181V25.3896C21.1196 25.5182 21.0695 25.5824 20.9694 25.5823H18.6778C18.5651 25.5823 18.5087 25.5181 18.5087 25.3896Z" fill="#FF9A00"/>
<path d="M38.56 31V7.96H41.904V31H38.56ZM47.0288 31V7.48H50.3728V31H47.0288ZM55.4975 31V7.48H58.8415V31H55.4975ZM70.1583 31.464C68.9636 31.464 67.9609 31.272 67.1503 30.888C66.3396 30.504 65.6783 30.0027 65.1663 29.384C64.6649 28.7547 64.2809 28.072 64.0143 27.336C63.7476 26.6 63.5663 25.88 63.4703 25.176C63.3743 24.472 63.3263 23.8533 63.3263 23.32V13.72H66.7183V22.216C66.7183 22.888 66.7716 23.5813 66.8783 24.296C66.9956 25 67.2089 25.656 67.5183 26.264C67.8383 26.872 68.2809 27.3627 68.8463 27.736C69.4223 28.1093 70.1689 28.296 71.0863 28.296C71.6836 28.296 72.2489 28.2 72.7823 28.008C73.3156 27.8053 73.7796 27.4853 74.1743 27.048C74.5796 26.6107 74.8943 26.0347 75.1183 25.32C75.3529 24.6053 75.4703 23.736 75.4703 22.712L77.5503 23.496C77.5503 25.064 77.2569 26.4507 76.6703 27.656C76.0836 28.8507 75.2409 29.784 74.1423 30.456C73.0436 31.128 71.7156 31.464 70.1583 31.464ZM75.8703 31V26.008H75.4703V13.72H78.8463V31H75.8703ZM89.9418 31.464C87.8404 31.464 86.1284 31 84.8058 30.072C83.4831 29.144 82.6724 27.8373 82.3738 26.152L85.7977 25.624C86.0111 26.52 86.5018 27.2293 87.2698 27.752C88.0484 28.264 89.0138 28.52 90.1658 28.52C91.2111 28.52 92.0271 28.3067 92.6138 27.88C93.2111 27.4533 93.5098 26.8667 93.5098 26.12C93.5098 25.6827 93.4031 25.3307 93.1898 25.064C92.9871 24.7867 92.5551 24.5253 91.8938 24.28C91.2324 24.0347 90.2244 23.7307 88.8698 23.368C87.3871 22.984 86.2084 22.5733 85.3338 22.136C84.4698 21.688 83.8511 21.1707 83.4778 20.584C83.1151 19.9867 82.9338 19.2667 82.9338 18.424C82.9338 17.3787 83.2111 16.4667 83.7658 15.688C84.3204 14.9093 85.0991 14.3067 86.1018 13.88C87.1151 13.4533 88.2991 13.24 89.6538 13.24C90.9764 13.24 92.1551 13.448 93.1898 13.864C94.2244 14.28 95.0618 14.872 95.7018 15.64C96.3418 16.3973 96.7258 17.288 96.8538 18.312L93.4298 18.936C93.3124 18.104 92.9231 17.448 92.2618 16.968C91.6004 16.488 90.7418 16.2267 89.6858 16.184C88.6724 16.1413 87.8511 16.312 87.2218 16.696C86.5924 17.0693 86.2778 17.5867 86.2778 18.248C86.2778 18.632 86.3951 18.9573 86.6298 19.224C86.8751 19.4907 87.3444 19.7467 88.0378 19.992C88.7311 20.2373 89.7551 20.5307 91.1098 20.872C92.5604 21.2453 93.7124 21.6613 94.5658 22.12C95.4191 22.568 96.0271 23.1067 96.3898 23.736C96.7631 24.3547 96.9498 25.1067 96.9498 25.992C96.9498 27.6987 96.3258 29.0373 95.0778 30.008C93.8404 30.9787 92.1284 31.464 89.9418 31.464ZM110.378 31C109.29 31.2133 108.223 31.304 107.178 31.272C106.133 31.24 105.199 31.0373 104.378 30.664C103.557 30.2907 102.938 29.704 102.522 28.904C102.149 28.1893 101.946 27.464 101.914 26.728C101.893 25.9813 101.882 25.1387 101.882 24.2V8.92H105.242V24.04C105.242 24.7333 105.247 25.336 105.258 25.848C105.279 26.36 105.391 26.792 105.594 27.144C105.978 27.8053 106.586 28.184 107.418 28.28C108.261 28.3653 109.247 28.328 110.378 28.168V31ZM98.57 16.408V13.72H110.378V16.408H98.57ZM114.021 31V13.72H116.997V17.912L116.581 17.368C116.795 16.8133 117.072 16.3067 117.413 15.848C117.755 15.3787 118.149 14.9947 118.597 14.696C119.035 14.376 119.52 14.1307 120.053 13.96C120.597 13.7787 121.152 13.672 121.717 13.64C122.283 13.5973 122.827 13.624 123.349 13.72V16.856C122.784 16.7067 122.155 16.664 121.461 16.728C120.779 16.792 120.149 17.0107 119.573 17.384C119.029 17.736 118.597 18.1627 118.277 18.664C117.968 19.1653 117.744 19.7253 117.605 20.344C117.467 20.952 117.397 21.5973 117.397 22.28V31H114.021ZM130.776 31.48C129.496 31.48 128.424 31.2453 127.56 30.776C126.696 30.296 126.04 29.6667 125.592 28.888C125.155 28.0987 124.936 27.2347 124.936 26.296C124.936 25.4213 125.091 24.6533 125.4 23.992C125.71 23.3307 126.168 22.7707 126.776 22.312C127.384 21.8427 128.131 21.464 129.016 21.176C129.784 20.952 130.654 20.7547 131.624 20.584C132.595 20.4133 133.614 20.2533 134.68 20.104C135.758 19.9547 136.824 19.8053 137.88 19.656L136.664 20.328C136.686 18.9733 136.398 17.9707 135.8 17.32C135.214 16.6587 134.2 16.328 132.76 16.328C131.854 16.328 131.022 16.5413 130.264 16.968C129.507 17.384 128.979 18.0773 128.68 19.048L125.56 18.088C125.987 16.6053 126.798 15.4267 127.992 14.552C129.198 13.6773 130.798 13.24 132.792 13.24C134.339 13.24 135.683 13.5067 136.824 14.04C137.976 14.5627 138.819 15.3947 139.352 16.536C139.63 17.1013 139.8 17.6987 139.864 18.328C139.928 18.9573 139.96 19.6347 139.96 20.36V31H137V27.048L137.576 27.56C136.862 28.8827 135.95 29.8693 134.84 30.52C133.742 31.16 132.387 31.48 130.776 31.48ZM131.368 28.744C132.318 28.744 133.134 28.5787 133.816 28.248C134.499 27.9067 135.048 27.4747 135.464 26.952C135.88 26.4293 136.152 25.8853 136.28 25.32C136.462 24.808 136.563 24.232 136.584 23.592C136.616 22.952 136.632 22.44 136.632 22.056L137.72 22.456C136.664 22.616 135.704 22.76 134.84 22.888C133.976 23.016 133.192 23.144 132.488 23.272C131.795 23.3893 131.176 23.5333 130.632 23.704C130.174 23.864 129.763 24.056 129.4 24.28C129.048 24.504 128.766 24.776 128.552 25.096C128.35 25.416 128.248 25.8053 128.248 26.264C128.248 26.712 128.36 27.128 128.584 27.512C128.808 27.8853 129.15 28.184 129.608 28.408C130.067 28.632 130.654 28.744 131.368 28.744ZM154.003 31C152.915 31.2133 151.848 31.304 150.803 31.272C149.758 31.24 148.824 31.0373 148.003 30.664C147.182 30.2907 146.563 29.704 146.147 28.904C145.774 28.1893 145.571 27.464 145.539 26.728C145.518 25.9813 145.507 25.1387 145.507 24.2V8.92H148.867V24.04C148.867 24.7333 148.872 25.336 148.883 25.848C148.904 26.36 149.016 26.792 149.219 27.144C149.603 27.8053 150.211 28.184 151.043 28.28C151.886 28.3653 152.872 28.328 154.003 28.168V31ZM142.195 16.408V13.72H154.003V16.408H142.195ZM164.369 31.48C162.641 31.48 161.142 31.0907 159.873 30.312C158.604 29.5333 157.622 28.4613 156.929 27.096C156.246 25.72 155.905 24.136 155.905 22.344C155.905 20.5413 156.257 18.9573 156.961 17.592C157.665 16.216 158.652 15.1493 159.921 14.392C161.19 13.624 162.673 13.24 164.369 13.24C166.097 13.24 167.596 13.6293 168.865 14.408C170.134 15.1867 171.116 16.2587 171.809 17.624C172.502 18.9893 172.849 20.5627 172.849 22.344C172.849 24.1467 172.497 25.736 171.793 27.112C171.1 28.4773 170.118 29.5493 168.849 30.328C167.58 31.096 166.086 31.48 164.369 31.48ZM164.369 28.328C166.022 28.328 167.254 27.7733 168.065 26.664C168.886 25.544 169.297 24.104 169.297 22.344C169.297 20.5413 168.881 19.1013 168.049 18.024C167.228 16.936 166.001 16.392 164.369 16.392C163.249 16.392 162.326 16.648 161.601 17.16C160.876 17.6613 160.337 18.36 159.985 19.256C159.633 20.1413 159.457 21.1707 159.457 22.344C159.457 24.1573 159.873 25.608 160.705 26.696C161.537 27.784 162.758 28.328 164.369 28.328ZM176.365 31V13.72H179.341V17.912L178.925 17.368C179.138 16.8133 179.416 16.3067 179.757 15.848C180.098 15.3787 180.493 14.9947 180.941 14.696C181.378 14.376 181.864 14.1307 182.397 13.96C182.941 13.7787 183.496 13.672 184.061 13.64C184.626 13.5973 185.17 13.624 185.693 13.72V16.856C185.128 16.7067 184.498 16.664 183.805 16.728C183.122 16.792 182.493 17.0107 181.917 17.384C181.373 17.736 180.941 18.1627 180.621 18.664C180.312 19.1653 180.088 19.7253 179.949 20.344C179.81 20.952 179.741 21.5973 179.741 22.28V31H176.365Z" fill="white"/>
</svg>
