<svg width="198" height="38" viewBox="0 0 198 38" fill="none" xmlns="http://www.w3.org/2000/svg">
<g clip-path="url(#clip0_383_2433)">
<path d="M11.5273 5.25767L0.971115 11.2949C0.368894 11.6385 0 12.2756 0 12.9627V25.0372C0 25.7244 0.372048 26.3615 0.971115 26.7051L11.5273 32.7423C12.1295 33.0859 12.8705 33.0859 13.4727 32.7423L24.0289 26.7051C24.631 26.3615 25 25.7244 25 25.0372V12.9627C25 12.2756 24.6279 11.6385 24.0289 11.2949L13.4727 5.25767C12.8705 4.91411 12.1295 4.91411 11.5273 5.25767Z" fill="#2B2CA3"/>
<path d="M21.4226 19.0301C21.4226 18.4126 21.4195 17.8227 21.2962 17.2129C21.2343 16.9027 21.1588 16.3571 20.969 15.9765C20.8919 15.8206 20.7947 15.6923 20.6713 15.6189C19.7409 15.0672 19.1114 16.8721 19.0158 17.4926C18.4234 21.3868 17.3402 23.0618 16.1738 24.2935C16.1738 24.2935 16.1723 24.2951 16.1692 24.2996C16.0967 24.376 16.0242 24.4494 15.9516 24.5227C15.427 25.0256 13.9953 26.181 11.9094 26.21C10.2416 26.1871 8.58147 25.5513 7.30862 24.2904C6.03576 23.0297 5.39395 21.3851 5.37081 19.7331C5.40012 17.6683 6.56805 16.2486 7.0741 15.7289C7.14816 15.6571 7.22222 15.5853 7.29937 15.5134C7.30399 15.5104 7.30554 15.5089 7.30554 15.5089C8.55062 14.3519 10.24 13.2791 14.1712 12.6922C14.7976 12.599 16.6182 11.9739 16.0628 11.0523C15.9887 10.9301 15.859 10.8338 15.7018 10.7574C15.3175 10.5694 14.7652 10.4945 14.4536 10.4334C13.8395 10.3126 13.244 10.3096 12.6206 10.3096C7.74062 10.3096 3.7832 14.2297 3.7832 19.0637C3.7832 21.3959 4.68733 23.5753 6.3428 25.2319H6.35976V25.2487C8.03222 26.8886 10.2323 27.7842 12.5867 27.7842C17.4652 27.7842 21.4241 23.8642 21.4241 19.0301H21.4226Z" fill="url(#paint0_linear_383_2433)"/>
<path d="M15.8267 22.1675C15.8405 22.1553 15.856 22.1416 15.8698 22.1293C16.4423 21.6142 16.7523 21.0489 16.831 20.896C17.3201 19.8323 17.6008 18.6647 17.7768 17.5185C17.7783 17.5032 18.0452 15.9917 18.9077 15.5897C18.9401 15.5745 18.9725 15.5622 19.0048 15.5515C18.7441 14.9937 18.3816 14.471 17.9172 14.011C17.8832 13.9774 17.8494 13.9468 17.8154 13.9132C17.783 13.8796 17.7506 13.8444 17.7166 13.8123C17.2522 13.3523 16.7245 12.9931 16.1613 12.7349C16.1506 12.767 16.1382 12.7991 16.1228 12.8312C15.7155 13.6855 14.1897 13.9499 14.1758 13.9514C13.0186 14.1241 11.8399 14.4038 10.7661 14.8883C10.6257 14.9585 10.1443 15.2184 9.66756 15.6876C9.66139 15.6937 9.65677 15.6983 9.65059 15.7028C9.64134 15.712 9.63208 15.7227 9.62127 15.7334C9.5966 15.7594 9.57036 15.7854 9.54569 15.8129C7.95191 17.5078 8.02906 20.2021 9.74779 21.9047C11.4202 23.5614 14.0431 23.6775 15.7587 22.2272C15.7819 22.2074 15.805 22.189 15.8282 22.1691L15.8267 22.1675Z" fill="url(#paint1_radial_383_2433)"/>
</g>
<path d="M44.856 31.48C37.944 31.48 33.96 26.6 33.96 19.48C33.96 12.36 37.944 7.48 44.856 7.48C50.168 7.48 53.736 10.376 55.096 14.92L51.704 15.832C50.792 12.616 48.504 10.664 44.856 10.664C39.96 10.664 37.512 14.2 37.496 19.48C37.464 24.76 39.96 28.296 44.856 28.296C48.504 28.296 50.792 26.344 51.704 23.128L55.096 24.04C53.736 28.584 50.168 31.48 44.856 31.48ZM58.935 10.888V7.64H62.279V10.888H58.935ZM58.935 31V13.72H62.279V31H58.935ZM75.7718 13.256C81.7238 13.256 82.6038 18.728 82.6038 21.4V31H79.2118V22.504C79.2118 19.816 78.5238 16.424 74.8438 16.424C72.4438 16.424 70.4598 17.912 70.4598 22.008V31H67.0678V13.72H70.0598V15.784C71.3238 14.184 73.2758 13.256 75.7718 13.256ZM89.1765 23.304C89.4485 26.52 91.1445 28.328 94.0565 28.328C96.1365 28.328 97.7045 27.352 98.5525 25.576L101.833 26.616C100.489 29.704 97.5605 31.48 94.2165 31.48C89.0485 31.48 85.5925 27.848 85.5925 22.504C85.5925 16.84 89.0005 13.24 94.0565 13.24C99.3365 13.24 102.409 17.112 102.057 23.304H89.1765ZM94.1845 16.2C91.3365 16.2 89.6885 17.768 89.2565 20.696H98.6325C98.2805 17.64 96.8405 16.2 94.1845 16.2ZM123.37 13.288C127.082 13.288 129.242 15.72 129.242 19.432L129.226 31H125.882L125.898 20.232C125.898 17.752 124.49 16.264 122.41 16.264C120.506 16.264 118.89 17.592 118.89 20.2L118.874 31H115.53L115.546 20.296C115.546 17.8 114.17 16.264 112.042 16.264C109.93 16.264 108.522 17.848 108.522 20.2V31H105.162V13.72H108.138V15.576C109.242 14.168 111.017 13.288 113.098 13.288C115.482 13.288 117.21 14.344 118.122 16.088C119.178 14.344 121.114 13.288 123.37 13.288ZM146.852 16.536C147.396 17.672 147.46 18.92 147.46 20.36V31H144.5V28.488C143.076 30.52 141.076 31.48 138.276 31.48C134.452 31.48 132.436 29.112 132.436 26.296C132.436 23.688 133.844 22.024 136.516 21.176C138.516 20.584 141.364 20.216 144.164 19.832C144.052 17.448 142.964 16.328 140.26 16.328C138.436 16.328 136.772 17.128 136.18 19.048L133.06 18.088C133.892 15.128 136.292 13.24 140.292 13.24C143.38 13.24 145.78 14.264 146.852 16.536ZM138.868 28.744C141.716 28.744 143.396 27 143.78 25.32C144.052 24.52 144.116 23.416 144.132 22.616C141.524 23 139.588 23.272 138.132 23.704C136.756 24.168 135.748 24.904 135.748 26.264C135.748 27.608 136.724 28.744 138.868 28.744ZM167.781 31V26.984H157.381V23.816L164.869 7.96H168.693L161.205 23.816H167.781V17.576H171.173V23.816H173.461V26.984H171.173V31H167.781ZM177.303 31V7.96H184.519C184.935 7.96 186.311 7.96 187.383 8.104C192.791 8.792 195.671 13.608 195.671 19.48C195.671 25.352 192.791 30.168 187.383 30.856C186.311 31 184.935 31 184.519 31H177.303ZM180.727 27.816H184.519C185.255 27.816 186.375 27.8 187.143 27.656C190.663 26.984 192.119 23.432 192.119 19.48C192.119 15.432 190.599 11.944 187.143 11.304C186.375 11.16 185.223 11.144 184.519 11.144H180.727V27.816Z" fill="white"/>
<defs>
<linearGradient id="paint0_linear_383_2433" x1="18.0546" y1="10.3096" x2="1.29311" y2="32.2324" gradientUnits="userSpaceOnUse">
<stop stop-color="#71D0FF"/>
<stop offset="1" stop-color="#2D12D3"/>
</linearGradient>
<radialGradient id="paint1_radial_383_2433" cx="0" cy="0" r="1" gradientTransform="matrix(-8.12154 8.04495 -8.08532 -8.00795 17.4164 13.7268)" gradientUnits="userSpaceOnUse">
<stop stop-color="#71D0FF"/>
<stop offset="1" stop-color="#524CF6"/>
</radialGradient>
<clipPath id="clip0_383_2433">
<rect width="25" height="28" fill="white" transform="translate(0 5)"/>
</clipPath>
</defs>
</svg>
