<svg width="200" height="38" viewBox="0 0 200 38" fill="none" xmlns="http://www.w3.org/2000/svg">
<path d="M0 24.1484V6.28676C0 5.56576 0.583333 4.98242 1.30317 4.98242H26.565C27.293 4.98242 27.8717 5.56576 27.8717 6.28909V23.5091C27.09 23.0308 26.1683 22.7904 25.1218 22.7904C23.6588 22.7904 22.5493 23.1404 21.7922 23.8358C21.0338 24.5334 20.6605 25.3851 20.6605 26.4316C20.6605 27.5633 21.0455 28.4033 21.8272 28.9399C22.2822 29.2724 23.1222 29.5699 24.3238 29.8289L25.5488 30.1089C26.2838 30.2641 26.7972 30.4589 27.1355 30.6456C27.4622 30.8591 27.6372 31.1554 27.6372 31.5381C27.6372 32.1984 27.2988 32.6523 26.6222 32.8774L26.5872 32.8961H24.0088C23.674 32.7748 23.4138 32.5998 23.2038 32.3711C22.9938 32.1098 22.8538 31.7294 22.7838 31.1893H20.4738C20.4738 31.8496 20.594 32.4084 20.8588 32.9159H18.8988C19.1205 32.4609 19.2488 31.9558 19.2488 31.3794C19.2488 30.3528 18.8988 29.5711 18.2152 29.0274C17.7788 28.6809 17.1185 28.4033 16.2458 28.1909L14.2392 27.7219C13.4692 27.5586 12.9675 27.3953 12.7225 27.2553C12.3608 27.0453 12.1858 26.7303 12.1858 26.3336C12.1858 25.8903 12.3725 25.5403 12.7342 25.2953C13.1192 25.0503 13.6092 24.9336 14.2392 24.9336C14.8108 24.9336 15.2658 25.0386 15.6508 25.2369C16.2272 25.5356 16.5258 26.0419 16.5725 26.7384H18.9058C18.8708 25.5181 18.4217 24.5766 17.5642 23.9338C16.6962 23.2921 15.6683 22.9596 14.4492 22.9596C12.985 22.9596 11.8883 23.3096 11.1207 23.9863C10.374 24.6664 9.989 25.5379 9.989 26.5646C9.989 27.6963 10.374 28.5339 11.1557 29.0729C11.6247 29.3879 12.4623 29.6831 13.664 29.9596L14.8832 30.2396C15.5948 30.3971 16.1198 30.5721 16.4698 30.7821C16.7965 30.9921 16.9715 31.2838 16.9715 31.6688C16.9715 32.3338 16.6215 32.7654 15.9448 33.0104H13.3315C13.0002 32.8868 12.7248 32.7118 12.5265 32.4679C12.3165 32.2113 12.1648 31.8099 12.0948 31.2849H9.74167C9.74167 31.9359 9.86417 32.5099 10.115 33.0116H7.67667C8.06167 32.4049 8.32183 31.7049 8.45017 30.9233H6.055C5.89167 31.5183 5.691 31.9709 5.4425 32.2649C5.13917 32.6499 4.7425 32.8949 4.2525 33.0174H2.821C2.296 32.8949 1.8445 32.5998 1.47933 32.1308C0.938 31.4798 0.676667 30.5044 0.676667 29.2141C0.676667 27.9074 0.945 26.9158 1.44667 26.2041C1.97167 25.4889 2.64833 25.1424 3.535 25.1424C4.41 25.1424 5.05167 25.3874 5.50667 25.8938C5.75167 26.1738 5.96167 26.5938 6.11333 27.1491H8.54C8.505 26.4281 8.23667 25.7024 7.73967 24.9791C6.839 23.6958 5.41333 23.0541 3.465 23.0541C2.11167 23.0541 0.975333 23.4741 0.07 24.2908L0.0116667 24.1624L0 24.1484ZM27.8763 28.3904V26.5774H27.2743C27.2335 25.8809 26.9243 25.3851 26.3608 25.0911C25.9957 24.8998 25.5243 24.8018 24.969 24.8018C24.339 24.8018 23.8548 24.9301 23.4873 25.1774C23.1233 25.4283 22.9297 25.7818 22.9297 26.2298C22.9297 26.6439 23.1233 26.9531 23.4862 27.1573C23.7428 27.2798 24.2445 27.4536 25.0145 27.6286L27.0212 28.1069C27.3712 28.1769 27.6745 28.2819 27.9545 28.3753L27.8962 28.4103L27.8763 28.3904Z" fill="white"/>
<path d="M47.8101 31.48C45.5061 31.48 43.5434 30.9787 41.9221 29.976C40.3008 28.9627 39.0581 27.5547 38.1941 25.752C37.3408 23.9493 36.9141 21.8587 36.9141 19.48C36.9141 17.1013 37.3408 15.0107 38.1941 13.208C39.0581 11.4053 40.3008 10.0027 41.9221 9C43.5434 7.98667 45.5061 7.48 47.8101 7.48C50.4661 7.48 52.6634 8.152 54.4021 9.496C56.1514 10.84 57.3674 12.648 58.0501 14.92L54.6581 15.832C54.2101 14.2213 53.4101 12.9573 52.2581 12.04C51.1168 11.1227 49.6341 10.664 47.8101 10.664C46.1781 10.664 44.8181 11.032 43.7301 11.768C42.6421 12.504 41.8208 13.5333 41.2661 14.856C40.7221 16.1787 40.4501 17.72 40.4501 19.48C40.4394 21.24 40.7061 22.7813 41.2501 24.104C41.8048 25.4267 42.6261 26.456 43.7141 27.192C44.8128 27.928 46.1781 28.296 47.8101 28.296C49.6341 28.296 51.1168 27.8373 52.2581 26.92C53.4101 25.992 54.2101 24.728 54.6581 23.128L58.0501 24.04C57.3674 26.312 56.1514 28.12 54.4021 29.464C52.6634 30.808 50.4661 31.48 47.8101 31.48ZM70.8899 31.48C69.2365 31.48 67.7432 31.1973 66.4099 30.632C65.0872 30.056 63.9939 29.24 63.1299 28.184C62.2765 27.1173 61.7219 25.8533 61.4659 24.392L64.9539 23.864C65.3059 25.272 66.0419 26.3707 67.1619 27.16C68.2819 27.9387 69.5885 28.328 71.0819 28.328C72.0099 28.328 72.8632 28.184 73.6419 27.896C74.4205 27.5973 75.0445 27.176 75.5139 26.632C75.9939 26.0773 76.2339 25.416 76.2339 24.648C76.2339 24.232 76.1592 23.864 76.0099 23.544C75.8712 23.224 75.6739 22.9467 75.4179 22.712C75.1725 22.4667 74.8685 22.2587 74.5059 22.088C74.1539 21.9067 73.7645 21.752 73.3379 21.624L67.4339 19.88C66.8579 19.7093 66.2712 19.4907 65.6739 19.224C65.0765 18.9467 64.5272 18.5893 64.0259 18.152C63.5352 17.704 63.1352 17.1547 62.8259 16.504C62.5165 15.8427 62.3619 15.0427 62.3619 14.104C62.3619 12.6853 62.7245 11.4853 63.4499 10.504C64.1859 9.512 65.1779 8.76533 66.4259 8.264C67.6739 7.752 69.0712 7.496 70.6179 7.496C72.1752 7.51733 73.5672 7.79467 74.7939 8.328C76.0312 8.86133 77.0552 9.62933 77.8659 10.632C78.6872 11.624 79.2525 12.8293 79.5619 14.248L75.9779 14.856C75.8179 13.992 75.4765 13.2507 74.9539 12.632C74.4312 12.0027 73.7912 11.5227 73.0339 11.192C72.2765 10.8507 71.4552 10.6747 70.5699 10.664C69.7165 10.6427 68.9325 10.7707 68.2179 11.048C67.5139 11.3253 66.9485 11.7147 66.5219 12.216C66.1059 12.7173 65.8979 13.2933 65.8979 13.944C65.8979 14.584 66.0845 15.1013 66.4579 15.496C66.8312 15.8907 67.2899 16.2053 67.8339 16.44C68.3885 16.664 68.9379 16.8507 69.4819 17L73.7379 18.2C74.2712 18.3493 74.8739 18.552 75.5459 18.808C76.2285 19.0533 76.8845 19.4 77.5139 19.848C78.1539 20.296 78.6819 20.8933 79.0979 21.64C79.5139 22.376 79.7219 23.304 79.7219 24.424C79.7219 25.5867 79.4872 26.6107 79.0179 27.496C78.5485 28.3707 77.9032 29.1067 77.0819 29.704C76.2712 30.2907 75.3325 30.7333 74.2659 31.032C73.1992 31.3307 72.0739 31.48 70.8899 31.48ZM91.9524 31.48C90.299 31.48 88.8057 31.1973 87.4724 30.632C86.1497 30.056 85.0564 29.24 84.1924 28.184C83.339 27.1173 82.7844 25.8533 82.5284 24.392L86.0164 23.864C86.3684 25.272 87.1044 26.3707 88.2244 27.16C89.3444 27.9387 90.651 28.328 92.1444 28.328C93.0724 28.328 93.9257 28.184 94.7044 27.896C95.483 27.5973 96.107 27.176 96.5764 26.632C97.0564 26.0773 97.2964 25.416 97.2964 24.648C97.2964 24.232 97.2217 23.864 97.0724 23.544C96.9337 23.224 96.7364 22.9467 96.4804 22.712C96.235 22.4667 95.931 22.2587 95.5684 22.088C95.2164 21.9067 94.827 21.752 94.4004 21.624L88.4964 19.88C87.9204 19.7093 87.3337 19.4907 86.7364 19.224C86.139 18.9467 85.5897 18.5893 85.0884 18.152C84.5977 17.704 84.1977 17.1547 83.8884 16.504C83.579 15.8427 83.4244 15.0427 83.4244 14.104C83.4244 12.6853 83.787 11.4853 84.5124 10.504C85.2484 9.512 86.2404 8.76533 87.4884 8.264C88.7364 7.752 90.1337 7.496 91.6804 7.496C93.2377 7.51733 94.6297 7.79467 95.8564 8.328C97.0937 8.86133 98.1177 9.62933 98.9284 10.632C99.7497 11.624 100.315 12.8293 100.624 14.248L97.0404 14.856C96.8804 13.992 96.539 13.2507 96.0164 12.632C95.4937 12.0027 94.8537 11.5227 94.0964 11.192C93.339 10.8507 92.5177 10.6747 91.6324 10.664C90.779 10.6427 89.995 10.7707 89.2804 11.048C88.5764 11.3253 88.011 11.7147 87.5844 12.216C87.1684 12.7173 86.9604 13.2933 86.9604 13.944C86.9604 14.584 87.147 15.1013 87.5204 15.496C87.8937 15.8907 88.3524 16.2053 88.8964 16.44C89.451 16.664 90.0004 16.8507 90.5444 17L94.8004 18.2C95.3337 18.3493 95.9364 18.552 96.6084 18.808C97.291 19.0533 97.947 19.4 98.5764 19.848C99.2164 20.296 99.7444 20.8933 100.16 21.64C100.576 22.376 100.784 23.304 100.784 24.424C100.784 25.5867 100.55 26.6107 100.08 27.496C99.611 28.3707 98.9657 29.1067 98.1444 29.704C97.3337 30.2907 96.395 30.7333 95.3284 31.032C94.2617 31.3307 93.1364 31.48 91.9524 31.48ZM110.018 7.96H113.394L107.25 31H103.874L110.018 7.96ZM125.921 31.48C124.268 31.48 122.774 31.1973 121.441 30.632C120.118 30.056 119.025 29.24 118.161 28.184C117.308 27.1173 116.753 25.8533 116.497 24.392L119.985 23.864C120.337 25.272 121.073 26.3707 122.193 27.16C123.313 27.9387 124.62 28.328 126.113 28.328C127.041 28.328 127.894 28.184 128.673 27.896C129.452 27.5973 130.076 27.176 130.545 26.632C131.025 26.0773 131.265 25.416 131.265 24.648C131.265 24.232 131.19 23.864 131.041 23.544C130.902 23.224 130.705 22.9467 130.449 22.712C130.204 22.4667 129.9 22.2587 129.537 22.088C129.185 21.9067 128.796 21.752 128.369 21.624L122.465 19.88C121.889 19.7093 121.302 19.4907 120.705 19.224C120.108 18.9467 119.558 18.5893 119.057 18.152C118.566 17.704 118.166 17.1547 117.857 16.504C117.548 15.8427 117.393 15.0427 117.393 14.104C117.393 12.6853 117.756 11.4853 118.481 10.504C119.217 9.512 120.209 8.76533 121.457 8.264C122.705 7.752 124.102 7.496 125.649 7.496C127.206 7.51733 128.598 7.79467 129.825 8.328C131.062 8.86133 132.086 9.62933 132.897 10.632C133.718 11.624 134.284 12.8293 134.593 14.248L131.009 14.856C130.849 13.992 130.508 13.2507 129.985 12.632C129.462 12.0027 128.822 11.5227 128.065 11.192C127.308 10.8507 126.486 10.6747 125.601 10.664C124.748 10.6427 123.964 10.7707 123.249 11.048C122.545 11.3253 121.98 11.7147 121.553 12.216C121.137 12.7173 120.929 13.2933 120.929 13.944C120.929 14.584 121.116 15.1013 121.489 15.496C121.862 15.8907 122.321 16.2053 122.865 16.44C123.42 16.664 123.969 16.8507 124.513 17L128.769 18.2C129.302 18.3493 129.905 18.552 130.577 18.808C131.26 19.0533 131.916 19.4 132.545 19.848C133.185 20.296 133.713 20.8933 134.129 21.64C134.545 22.376 134.753 23.304 134.753 24.424C134.753 25.5867 134.518 26.6107 134.049 27.496C133.58 28.3707 132.934 29.1067 132.113 29.704C131.302 30.2907 130.364 30.7333 129.297 31.032C128.23 31.3307 127.105 31.48 125.921 31.48ZM136.563 31L144.051 7.96H148.867L156.355 31H152.883L145.987 9.976H146.851L140.035 31H136.563ZM140.451 25.8V22.664H152.483V25.8H140.451ZM158.688 31L166.176 7.96H170.992L178.48 31H175.008L168.112 9.976H168.976L162.16 31H158.688ZM162.576 25.8V22.664H174.608V25.8H162.576ZM189.077 31.48C187.424 31.48 185.931 31.1973 184.597 30.632C183.275 30.056 182.181 29.24 181.317 28.184C180.464 27.1173 179.909 25.8533 179.653 24.392L183.141 23.864C183.493 25.272 184.229 26.3707 185.349 27.16C186.469 27.9387 187.776 28.328 189.269 28.328C190.197 28.328 191.051 28.184 191.829 27.896C192.608 27.5973 193.232 27.176 193.701 26.632C194.181 26.0773 194.421 25.416 194.421 24.648C194.421 24.232 194.347 23.864 194.197 23.544C194.059 23.224 193.861 22.9467 193.605 22.712C193.36 22.4667 193.056 22.2587 192.693 22.088C192.341 21.9067 191.952 21.752 191.525 21.624L185.621 19.88C185.045 19.7093 184.459 19.4907 183.861 19.224C183.264 18.9467 182.715 18.5893 182.213 18.152C181.723 17.704 181.323 17.1547 181.013 16.504C180.704 15.8427 180.549 15.0427 180.549 14.104C180.549 12.6853 180.912 11.4853 181.637 10.504C182.373 9.512 183.365 8.76533 184.613 8.264C185.861 7.752 187.259 7.496 188.805 7.496C190.363 7.51733 191.755 7.79467 192.981 8.328C194.219 8.86133 195.243 9.62933 196.053 10.632C196.875 11.624 197.44 12.8293 197.749 14.248L194.165 14.856C194.005 13.992 193.664 13.2507 193.141 12.632C192.619 12.0027 191.979 11.5227 191.221 11.192C190.464 10.8507 189.643 10.6747 188.757 10.664C187.904 10.6427 187.12 10.7707 186.405 11.048C185.701 11.3253 185.136 11.7147 184.709 12.216C184.293 12.7173 184.085 13.2933 184.085 13.944C184.085 14.584 184.272 15.1013 184.645 15.496C185.019 15.8907 185.477 16.2053 186.021 16.44C186.576 16.664 187.125 16.8507 187.669 17L191.925 18.2C192.459 18.3493 193.061 18.552 193.733 18.808C194.416 19.0533 195.072 19.4 195.701 19.848C196.341 20.296 196.869 20.8933 197.285 21.64C197.701 22.376 197.909 23.304 197.909 24.424C197.909 25.5867 197.675 26.6107 197.205 27.496C196.736 28.3707 196.091 29.1067 195.269 29.704C194.459 30.2907 193.52 30.7333 192.453 31.032C191.387 31.3307 190.261 31.48 189.077 31.48Z" fill="white"/>
</svg>
