<svg width="122" height="38" viewBox="0 0 122 38" fill="none" xmlns="http://www.w3.org/2000/svg">
<path d="M8.24707 19C8.24707 16.6637 10.094 14.7715 12.3705 14.7715C14.6488 14.7715 16.4939 16.6619 16.4939 19C16.4939 21.3364 14.6488 23.2286 12.3705 23.2286C10.0958 23.2286 8.24707 21.3382 8.24707 19Z" fill="#1ABCFE"/>
<path d="M0 27.4589C0 25.1226 1.84694 23.2285 4.12344 23.2285H8.24688V27.4589C8.24688 29.7934 6.39994 31.6875 4.12344 31.6875C1.84694 31.6875 0 29.7934 0 27.4589Z" fill="#0ACF83"/>
<path d="M8.24707 6.3125V14.7714H12.3705C14.6488 14.7714 16.4939 12.8774 16.4939 10.5411C16.4939 8.20656 14.6488 6.3125 12.3705 6.3125H8.24707Z" fill="#FF7262"/>
<path d="M0 10.5411C0 12.8774 1.84694 14.7714 4.12344 14.7714H8.24688V6.3125H4.12344C1.84694 6.3125 0 8.20656 0 10.5411Z" fill="#F24E1E"/>
<path d="M0 19C0 21.3364 1.84694 23.2286 4.12344 23.2286H8.24688V14.7715H4.12344C1.84694 14.7715 0 16.6619 0 19Z" fill="#A259FF"/>
<path d="M26.7341 31V7.96H40.3821V11.304H30.0781V17.8H38.4621V21.16H30.0781V31H26.7341ZM43.5854 31V7.96H46.9294V31H43.5854ZM61.1581 31.48C54.9821 31.48 50.4541 27.032 50.4541 19.48C50.4541 12.04 54.8541 7.496 61.1581 7.496C66.5661 7.496 69.7661 10.168 70.9501 14.6L67.5581 15.208C66.6301 12.456 64.5181 10.696 61.3501 10.664C56.4541 10.632 54.0221 14.2 54.0061 19.48C53.9901 24.76 56.4541 28.264 61.3501 28.296C65.3021 28.344 67.5901 25.992 68.0541 21.72H63.5741V19.032H71.6061C71.6541 19.432 71.6701 20.232 71.6701 20.392C71.6701 26.808 67.8621 31.48 61.1581 31.48ZM74.8591 31V7.96H77.8831L86.2351 25.288L94.5391 7.96H97.5951V30.984H94.4271V15.224L86.9871 31H85.4671L78.0111 15.224V31H74.8591ZM116.798 31L115.086 25.8H105.63L103.95 31H100.478L107.966 7.96H112.782L120.27 31H116.798ZM106.654 22.664H114.062L110.334 11.32L106.654 22.664Z" fill="white"/>
</svg>
