<svg width="22" height="22" viewBox="0 0 22 22" fill="none" xmlns="http://www.w3.org/2000/svg">
<g clip-path="url(#clip0_320_2833)">
<path d="M19.7317 10.9996C19.7317 10.514 19.6925 10.027 19.6117 9.5471C20.3268 9.24013 21.0283 8.88637 21.7109 8.48727C21.5712 7.88919 21.3809 7.30323 21.143 6.73797C20.3562 6.81575 19.5807 6.94113 18.8218 7.11331C18.6043 6.6776 18.3514 6.25999 18.0652 5.86773C17.779 5.47392 17.4603 5.10464 17.1118 4.76412C17.5102 4.09466 17.8689 3.39659 18.1867 2.67201C17.7231 2.2718 17.2263 1.90975 16.7026 1.59182C16.1113 2.11741 15.557 2.67429 15.042 3.25802C14.6124 3.03222 14.1616 2.84307 13.6994 2.69354C13.2365 2.54289 12.7615 2.43225 12.2797 2.36092C12.2073 1.58654 12.0857 0.810262 11.9158 0.0373828C11.3056 -0.0124609 10.6947 -0.0124609 10.0846 0.0373828C9.91466 0.810219 9.79311 1.58649 9.72062 2.36092C9.23885 2.43225 8.76388 2.54289 8.3017 2.69354C7.83884 2.84307 7.38802 3.03222 6.95833 3.25802C6.44335 2.67429 5.88909 2.11741 5.29784 1.59182C4.77375 1.90975 4.27691 2.2718 3.81327 2.67201C4.13193 3.39659 4.49059 4.09466 4.88779 4.76412C4.54121 5.10464 4.221 5.47392 3.93483 5.86773C3.64939 6.26076 3.39566 6.6776 3.1782 7.11331C2.42005 6.94109 1.64455 6.81575 0.856937 6.73797C0.619105 7.30323 0.428797 7.88919 0.289062 8.48727C0.97248 8.88637 1.67322 9.24009 2.38834 9.5471C2.30752 10.027 2.26829 10.514 2.26829 10.9996C2.26829 11.4866 2.30752 11.9729 2.38834 12.4524C1.67326 12.7605 0.97248 13.1135 0.289062 13.5126C0.428797 14.1107 0.619105 14.6967 0.856937 15.2623C1.64455 15.1841 2.42005 15.0584 3.1782 14.8866C3.39566 15.3223 3.64939 15.7392 3.93483 16.1326C4.22105 16.526 4.54121 16.896 4.88779 17.2358C4.49059 17.9052 4.13189 18.6041 3.81327 19.3279C4.27691 19.7277 4.77375 20.0898 5.29784 20.4081C5.88909 19.8829 6.44339 19.326 6.95833 18.7415C7.38802 18.9673 7.83884 19.1565 8.3017 19.3067C8.76388 19.4574 9.23885 19.568 9.72062 19.639C9.79311 20.4142 9.91466 21.19 10.0846 21.9621C10.6947 22.0128 11.3056 22.0128 11.9158 21.9621C12.0857 21.19 12.2073 20.4142 12.2797 19.639C12.7615 19.568 13.2365 19.4574 13.6994 19.3067C14.1615 19.1565 14.6123 18.9673 15.042 18.7415C15.557 19.326 16.1113 19.8829 16.7026 20.4081C17.2263 20.0898 17.7231 19.7277 18.1867 19.3279C17.8689 18.6041 17.5102 17.9052 17.1118 17.2358C17.4603 16.896 17.779 16.526 18.0652 16.1326C18.3514 15.7392 18.6043 15.3223 18.8218 14.8866C19.5807 15.0584 20.3562 15.1841 21.143 15.2623C21.3809 14.6967 21.5712 14.1107 21.7109 13.5126C21.0282 13.1135 20.3268 12.7605 19.6117 12.4524C19.6925 11.9729 19.7317 11.4866 19.7317 10.9996ZM4.7301 13.0369C4.51788 12.3826 4.40916 11.695 4.40989 10.9996C4.40916 10.3052 4.51788 9.6177 4.7301 8.96225C4.94228 8.30792 5.2602 7.68608 5.6672 7.12693C6.07347 6.56885 6.56809 6.0735 7.12763 5.6665C7.68639 5.25946 8.30712 4.94231 8.96256 4.72974C9.34013 4.60702 9.72977 4.52358 10.1247 4.4715V10.4951L4.90378 13.5096C4.84031 13.354 4.78218 13.1966 4.7301 13.0369ZM10.9999 12.0099L16.2162 15.0217C15.8319 15.5186 15.3803 15.9645 14.8729 16.3338C14.3141 16.7404 13.6919 17.0576 13.0379 17.2705C12.3833 17.4824 11.6961 17.5907 11.0006 17.5907C10.3052 17.5907 9.61723 17.4824 8.96252 17.2705C8.30785 17.0576 7.68635 16.7404 7.12758 16.3338C6.61939 15.9645 6.16783 15.5186 5.78421 15.0217L10.9999 12.0099ZM17.27 13.0369C17.2187 13.1966 17.1605 13.3541 17.0959 13.5096L11.875 10.4947V4.4715C12.27 4.52362 12.6596 4.60707 13.0379 4.72974C13.6934 4.94231 14.3141 5.25946 14.8729 5.6665C15.4317 6.0735 15.9271 6.56885 16.334 7.12693C16.7403 7.68608 17.0574 8.30797 17.27 8.96225C17.483 9.6177 17.5909 10.3052 17.5902 10.9996C17.591 11.695 17.483 12.3826 17.27 13.0369Z" fill="#89BCFF"/>
</g>
<defs>
<clipPath id="clip0_320_2833">
<rect width="22" height="22" fill="white"/>
</clipPath>
</defs>
</svg>
