<svg width="143" height="38" viewBox="0 0 143 38" fill="none" xmlns="http://www.w3.org/2000/svg">
<path fill-rule="evenodd" clip-rule="evenodd" d="M19.3671 13.4H19.3575H7.79774L8.07418 16.2H19.092C18.9305 18.6528 18.442 23.8494 18.2627 26.214L12.0743 28.0316V28.0371L12.0606 28.0439L5.86815 25.7703L5.44391 20.4H8.47925L8.69411 23.2882L12.0661 24.6H12.0743L15.4408 23.3401L15.7871 19H5.30843C5.25779 18.4386 4.60639 11.1488 4.4928 10.6H19.638C19.5532 11.524 19.467 12.4732 19.3671 13.4ZM0 5L2.19782 30.4071L12.0606 33L21.9494 30.3552L24.15 5H0Z" fill="white"/>
<path d="M34.3904 31V7.96H37.7344V17.896H49.2544V7.96H52.6144V31H49.2544V21.048H37.7344V31H34.3904ZM62.8531 31V11.112H55.1891V7.96H73.8611V11.112H66.1971V31H62.8531ZM76.4216 31V7.96H79.4456L87.7976 25.288L96.1016 7.96H99.1576V30.984H95.9896V15.224L88.5496 31H87.0296L79.5736 15.224V31H76.4216ZM103.96 31V7.96H107.304V27.848H117.736V31H103.96ZM132.625 16.2C136.929 16.2 140.097 19.432 140.097 23.752C140.097 28.04 136.401 31.48 132.097 31.48C128.545 31.48 125.569 29.128 124.625 25.768L127.841 24.904C128.369 26.952 130.273 28.248 132.193 28.248C134.721 28.248 136.721 26.216 136.721 23.752C136.721 21.224 134.657 19.24 132.193 19.24C130.305 19.24 129.009 20.136 128.289 21.096L125.377 20.072L126.081 7.96H138.513V11.112H129.073L128.689 17.448C129.825 16.632 131.265 16.2 132.625 16.2Z" fill="white"/>
</svg>
