<svg width="197" height="39" viewBox="0 0 197 39" fill="none" xmlns="http://www.w3.org/2000/svg">
<path d="M0 5V33H28V5H0ZM15.238 26.837C15.238 29.562 13.638 30.806 11.307 30.806C9.201 30.806 7.982 29.719 7.357 28.4L9.501 27.106C9.914 27.837 10.289 28.456 11.195 28.456C12.057 28.456 12.607 28.118 12.607 26.8V17.856H15.238V26.837ZM21.462 30.806C19.018 30.806 17.437 29.644 16.668 28.118L18.812 26.881C19.375 27.8 20.112 28.481 21.406 28.481C22.493 28.481 23.194 27.937 23.194 27.181C23.194 26.281 22.481 25.962 21.275 25.431L20.619 25.15C18.719 24.344 17.463 23.325 17.463 21.181C17.463 19.206 18.969 17.706 21.313 17.706C22.988 17.706 24.188 18.287 25.051 19.812L23.001 21.125C22.551 20.319 22.063 20 21.307 20C20.539 20 20.051 20.488 20.051 21.125C20.051 21.913 20.539 22.231 21.67 22.725L22.326 23.006C24.564 23.962 25.82 24.944 25.82 27.143C25.82 29.506 23.957 30.805 21.463 30.805L21.462 30.806Z" fill="white"/>
<path d="M42.624 31.464C40.9387 31.464 39.52 31.016 38.368 30.12C37.2267 29.224 36.4373 28.0187 36 26.504L39.312 25.72C39.4613 26.4347 39.84 27.048 40.448 27.56C41.0667 28.0613 41.7547 28.312 42.512 28.312C43.0133 28.312 43.536 28.184 44.08 27.928C44.624 27.672 45.0293 27.256 45.296 26.68C45.4773 26.296 45.584 25.8587 45.616 25.368C45.648 24.8667 45.664 24.2853 45.664 23.624V7.96H49.056V23.624C49.056 24.3067 49.0507 24.9147 49.04 25.448C49.04 25.9813 48.9867 26.4827 48.88 26.952C48.784 27.4213 48.592 27.9067 48.304 28.408C47.696 29.464 46.896 30.2373 45.904 30.728C44.912 31.2187 43.8187 31.464 42.624 31.464ZM58.745 31.48C57.465 31.48 56.393 31.2453 55.529 30.776C54.665 30.296 54.009 29.6667 53.561 28.888C53.1237 28.0987 52.905 27.2347 52.905 26.296C52.905 25.4213 53.0597 24.6533 53.369 23.992C53.6783 23.3307 54.137 22.7707 54.745 22.312C55.353 21.8427 56.0997 21.464 56.985 21.176C57.753 20.952 58.6223 20.7547 59.593 20.584C60.5637 20.4133 61.5823 20.2533 62.649 20.104C63.7263 19.9547 64.793 19.8053 65.849 19.656L64.633 20.328C64.6543 18.9733 64.3663 17.9707 63.769 17.32C63.1823 16.6587 62.169 16.328 60.729 16.328C59.8223 16.328 58.9903 16.5413 58.233 16.968C57.4757 17.384 56.9477 18.0773 56.649 19.048L53.529 18.088C53.9557 16.6053 54.7663 15.4267 55.961 14.552C57.1663 13.6773 58.7663 13.24 60.761 13.24C62.3077 13.24 63.6517 13.5067 64.793 14.04C65.945 14.5627 66.7877 15.3947 67.321 16.536C67.5983 17.1013 67.769 17.6987 67.833 18.328C67.897 18.9573 67.929 19.6347 67.929 20.36V31H64.969V27.048L65.545 27.56C64.8303 28.8827 63.9183 29.8693 62.809 30.52C61.7103 31.16 60.3557 31.48 58.745 31.48ZM59.337 28.744C60.2863 28.744 61.1023 28.5787 61.785 28.248C62.4677 27.9067 63.017 27.4747 63.433 26.952C63.849 26.4293 64.121 25.8853 64.249 25.32C64.4303 24.808 64.5317 24.232 64.553 23.592C64.585 22.952 64.601 22.44 64.601 22.056L65.689 22.456C64.633 22.616 63.673 22.76 62.809 22.888C61.945 23.016 61.161 23.144 60.457 23.272C59.7637 23.3893 59.145 23.5333 58.601 23.704C58.1423 23.864 57.7317 24.056 57.369 24.28C57.017 24.504 56.7343 24.776 56.521 25.096C56.3183 25.416 56.217 25.8053 56.217 26.264C56.217 26.712 56.329 27.128 56.553 27.512C56.777 27.8853 57.1183 28.184 57.577 28.408C58.0357 28.632 58.6223 28.744 59.337 28.744ZM76.1308 31L69.8588 13.72H73.2348L77.8268 26.808L82.4188 13.72H85.7948L79.5228 31H76.1308ZM92.5888 31.48C91.3088 31.48 90.2368 31.2453 89.3728 30.776C88.5088 30.296 87.8528 29.6667 87.4048 28.888C86.9674 28.0987 86.7488 27.2347 86.7488 26.296C86.7488 25.4213 86.9034 24.6533 87.2128 23.992C87.5221 23.3307 87.9808 22.7707 88.5888 22.312C89.1968 21.8427 89.9434 21.464 90.8288 21.176C91.5968 20.952 92.4661 20.7547 93.4368 20.584C94.4074 20.4133 95.4261 20.2533 96.4928 20.104C97.5701 19.9547 98.6368 19.8053 99.6928 19.656L98.4768 20.328C98.4981 18.9733 98.2101 17.9707 97.6128 17.32C97.0261 16.6587 96.0128 16.328 94.5728 16.328C93.6661 16.328 92.8341 16.5413 92.0768 16.968C91.3194 17.384 90.7914 18.0773 90.4928 19.048L87.3728 18.088C87.7994 16.6053 88.6101 15.4267 89.8048 14.552C91.0101 13.6773 92.6101 13.24 94.6048 13.24C96.1514 13.24 97.4954 13.5067 98.6368 14.04C99.7888 14.5627 100.631 15.3947 101.165 16.536C101.442 17.1013 101.613 17.6987 101.677 18.328C101.741 18.9573 101.773 19.6347 101.773 20.36V31H98.8128V27.048L99.3888 27.56C98.6741 28.8827 97.7621 29.8693 96.6528 30.52C95.5541 31.16 94.1994 31.48 92.5888 31.48ZM93.1808 28.744C94.1301 28.744 94.9461 28.5787 95.6288 28.248C96.3114 27.9067 96.8608 27.4747 97.2768 26.952C97.6928 26.4293 97.9648 25.8853 98.0928 25.32C98.2741 24.808 98.3754 24.232 98.3968 23.592C98.4288 22.952 98.4448 22.44 98.4448 22.056L99.5328 22.456C98.4768 22.616 97.5168 22.76 96.6528 22.888C95.7888 23.016 95.0048 23.144 94.3008 23.272C93.6074 23.3893 92.9888 23.5333 92.4448 23.704C91.9861 23.864 91.5754 24.056 91.2128 24.28C90.8608 24.504 90.5781 24.776 90.3648 25.096C90.1621 25.416 90.0608 25.8053 90.0608 26.264C90.0608 26.712 90.1728 27.128 90.3968 27.512C90.6208 27.8853 90.9621 28.184 91.4208 28.408C91.8794 28.632 92.4661 28.744 93.1808 28.744ZM114.28 31.48C112.626 31.48 111.133 31.1973 109.8 30.632C108.477 30.056 107.384 29.24 106.52 28.184C105.666 27.1173 105.112 25.8533 104.856 24.392L108.344 23.864C108.696 25.272 109.432 26.3707 110.552 27.16C111.672 27.9387 112.978 28.328 114.472 28.328C115.4 28.328 116.253 28.184 117.032 27.896C117.81 27.5973 118.434 27.176 118.904 26.632C119.384 26.0773 119.624 25.416 119.624 24.648C119.624 24.232 119.549 23.864 119.4 23.544C119.261 23.224 119.064 22.9467 118.808 22.712C118.562 22.4667 118.258 22.2587 117.896 22.088C117.544 21.9067 117.154 21.752 116.728 21.624L110.824 19.88C110.248 19.7093 109.661 19.4907 109.064 19.224C108.466 18.9467 107.917 18.5893 107.416 18.152C106.925 17.704 106.525 17.1547 106.216 16.504C105.906 15.8427 105.752 15.0427 105.752 14.104C105.752 12.6853 106.114 11.4853 106.84 10.504C107.576 9.512 108.568 8.76533 109.816 8.264C111.064 7.752 112.461 7.496 114.008 7.496C115.565 7.51733 116.957 7.79467 118.184 8.328C119.421 8.86133 120.445 9.62933 121.256 10.632C122.077 11.624 122.642 12.8293 122.952 14.248L119.368 14.856C119.208 13.992 118.866 13.2507 118.344 12.632C117.821 12.0027 117.181 11.5227 116.424 11.192C115.666 10.8507 114.845 10.6747 113.96 10.664C113.106 10.6427 112.322 10.7707 111.608 11.048C110.904 11.3253 110.338 11.7147 109.912 12.216C109.496 12.7173 109.288 13.2933 109.288 13.944C109.288 14.584 109.474 15.1013 109.848 15.496C110.221 15.8907 110.68 16.2053 111.224 16.44C111.778 16.664 112.328 16.8507 112.872 17L117.128 18.2C117.661 18.3493 118.264 18.552 118.936 18.808C119.618 19.0533 120.274 19.4 120.904 19.848C121.544 20.296 122.072 20.8933 122.488 21.64C122.904 22.376 123.112 23.304 123.112 24.424C123.112 25.5867 122.877 26.6107 122.408 27.496C121.938 28.3707 121.293 29.1067 120.472 29.704C119.661 30.2907 118.722 30.7333 117.656 31.032C116.589 31.3307 115.464 31.48 114.28 31.48ZM133.913 31.48C132.143 31.48 130.639 31.0853 129.401 30.296C128.164 29.5067 127.215 28.424 126.553 27.048C125.903 25.672 125.572 24.1093 125.561 22.36C125.572 20.5787 125.913 19.0053 126.585 17.64C127.257 16.264 128.217 15.1867 129.465 14.408C130.713 13.6293 132.212 13.24 133.961 13.24C135.849 13.24 137.46 13.7093 138.793 14.648C140.137 15.5867 141.023 16.872 141.449 18.504L138.121 19.464C137.791 18.4933 137.247 17.7413 136.489 17.208C135.743 16.664 134.884 16.392 133.913 16.392C132.815 16.392 131.913 16.6533 131.209 17.176C130.505 17.688 129.983 18.392 129.641 19.288C129.3 20.184 129.124 21.208 129.113 22.36C129.124 24.1413 129.529 25.5813 130.329 26.68C131.14 27.7787 132.335 28.328 133.913 28.328C134.991 28.328 135.86 28.0827 136.521 27.592C137.193 27.0907 137.705 26.376 138.057 25.448L141.449 26.248C140.884 27.9333 139.951 29.2293 138.649 30.136C137.348 31.032 135.769 31.48 133.913 31.48ZM144.709 31V13.72H147.685V17.912L147.269 17.368C147.482 16.8133 147.759 16.3067 148.101 15.848C148.442 15.3787 148.837 14.9947 149.285 14.696C149.722 14.376 150.207 14.1307 150.741 13.96C151.285 13.7787 151.839 13.672 152.405 13.64C152.97 13.5973 153.514 13.624 154.037 13.72V16.856C153.471 16.7067 152.842 16.664 152.149 16.728C151.466 16.792 150.837 17.0107 150.261 17.384C149.717 17.736 149.285 18.1627 148.965 18.664C148.655 19.1653 148.431 19.7253 148.293 20.344C148.154 20.952 148.085 21.5973 148.085 22.28V31H144.709ZM157.404 10.888V7.64H160.748V10.888H157.404ZM157.404 31V13.72H160.748V31H157.404ZM173.665 31.48C172.011 31.48 170.625 31.08 169.505 30.28C168.385 29.4693 167.537 28.376 166.961 27C166.385 25.624 166.097 24.072 166.097 22.344C166.097 20.616 166.379 19.064 166.945 17.688C167.521 16.312 168.363 15.2293 169.473 14.44C170.593 13.64 171.969 13.24 173.601 13.24C175.222 13.24 176.619 13.64 177.793 14.44C178.977 15.2293 179.889 16.312 180.529 17.688C181.169 19.0533 181.489 20.6053 181.489 22.344C181.489 24.072 181.169 25.6293 180.529 27.016C179.899 28.392 178.998 29.48 177.825 30.28C176.662 31.08 175.275 31.48 173.665 31.48ZM165.537 38.68V13.72H168.513V26.152H168.897V38.68H165.537ZM173.201 28.456C174.267 28.456 175.147 28.184 175.841 27.64C176.545 27.096 177.067 26.3653 177.409 25.448C177.761 24.52 177.937 23.4853 177.937 22.344C177.937 21.2133 177.761 20.1893 177.409 19.272C177.067 18.3547 176.539 17.624 175.825 17.08C175.11 16.536 174.198 16.264 173.089 16.264C172.043 16.264 171.179 16.52 170.497 17.032C169.825 17.544 169.323 18.2587 168.993 19.176C168.673 20.0933 168.513 21.1493 168.513 22.344C168.513 23.5387 168.673 24.5947 168.993 25.512C169.313 26.4293 169.819 27.1493 170.513 27.672C171.206 28.1947 172.102 28.456 173.201 28.456ZM194.909 31C193.821 31.2133 192.755 31.304 191.709 31.272C190.664 31.24 189.731 31.0373 188.909 30.664C188.088 30.2907 187.469 29.704 187.053 28.904C186.68 28.1893 186.477 27.464 186.445 26.728C186.424 25.9813 186.413 25.1387 186.413 24.2V8.92H189.773V24.04C189.773 24.7333 189.779 25.336 189.789 25.848C189.811 26.36 189.923 26.792 190.125 27.144C190.509 27.8053 191.117 28.184 191.949 28.28C192.792 28.3653 193.779 28.328 194.909 28.168V31ZM183.101 16.408V13.72H194.909V16.408H183.101Z" fill="white"/>
</svg>
