<svg width="145" height="38" viewBox="0 0 145 38" fill="none" xmlns="http://www.w3.org/2000/svg">
<g clip-path="url(#clip0_322_2982)">
<path d="M7.66075 11.3413L12.2651 20.55L7.3279 22.1958L4.84863 12.2787L7.66075 11.3413Z" fill="white"/>
<path d="M17.3178 26.4811L14.8975 21.6403L20.7908 19.6758L22.9653 23.0926L17.3178 26.4811Z" fill="white"/>
<path d="M22.7433 17.0574L21.583 17.4441L20.6162 15.9247L21.692 15.6558L22.7433 17.0574Z" fill="white"/>
<path fill-rule="evenodd" clip-rule="evenodd" d="M0 9.66667C0 7.08934 2.08934 5 4.66667 5H23.3333C25.9106 5 28 7.08934 28 9.66667V28.3333C28 30.9106 25.9106 33 23.3333 33H4.66667C2.08934 33 0 30.9106 0 28.3333V9.66667ZM8.96831 9.78268C8.76058 9.36723 8.279 9.16774 7.83836 9.31463L3.43836 10.7813C2.97569 10.9355 2.70975 11.42 2.82804 11.8931L5.76137 23.6264C5.82443 23.8787 5.98982 24.0932 6.2177 24.2183C6.4456 24.3433 6.71535 24.3678 6.96198 24.2855L13.1083 22.2367L16.0987 28.2174C16.215 28.45 16.423 28.6234 16.6726 28.6962C16.9222 28.7688 17.1908 28.7341 17.4137 28.6005L24.747 24.2003C24.9629 24.0708 25.1173 23.8595 25.1752 23.6145C25.233 23.3695 25.1894 23.1114 25.0542 22.899L22.616 19.0675L24.562 18.4188C24.8466 18.324 25.0682 18.0981 25.1576 17.8117C25.2472 17.5253 25.1935 17.2134 25.0135 16.9734L22.8135 14.0401C22.5882 13.7397 22.2047 13.6035 21.8406 13.6946L18.9071 14.4279C18.6161 14.5007 18.3777 14.7089 18.2666 14.9876C18.1554 15.2663 18.185 15.5814 18.3461 15.8345L19.7577 18.0526L14.0539 19.9539L8.96831 9.78268Z" fill="white"/>
</g>
<path d="M38.56 31V7.96H41.904V27.848H52.336V31H38.56ZM59.9325 31.48C58.6525 31.48 57.5805 31.2453 56.7165 30.776C55.8525 30.296 55.1965 29.6667 54.7485 28.888C54.3112 28.0987 54.0925 27.2347 54.0925 26.296C54.0925 25.4213 54.2472 24.6533 54.5565 23.992C54.8658 23.3307 55.3245 22.7707 55.9325 22.312C56.5405 21.8427 57.2872 21.464 58.1725 21.176C58.9405 20.952 59.8098 20.7547 60.7805 20.584C61.7512 20.4133 62.7698 20.2533 63.8365 20.104C64.9138 19.9547 65.9805 19.8053 67.0365 19.656L65.8205 20.328C65.8418 18.9733 65.5538 17.9707 64.9565 17.32C64.3698 16.6587 63.3565 16.328 61.9165 16.328C61.0098 16.328 60.1778 16.5413 59.4205 16.968C58.6632 17.384 58.1352 18.0773 57.8365 19.048L54.7165 18.088C55.1432 16.6053 55.9538 15.4267 57.1485 14.552C58.3538 13.6773 59.9538 13.24 61.9485 13.24C63.4952 13.24 64.8392 13.5067 65.9805 14.04C67.1325 14.5627 67.9752 15.3947 68.5085 16.536C68.7858 17.1013 68.9565 17.6987 69.0205 18.328C69.0845 18.9573 69.1165 19.6347 69.1165 20.36V31H66.1565V27.048L66.7325 27.56C66.0178 28.8827 65.1058 29.8693 63.9965 30.52C62.8978 31.16 61.5432 31.48 59.9325 31.48ZM60.5245 28.744C61.4738 28.744 62.2898 28.5787 62.9725 28.248C63.6552 27.9067 64.2045 27.4747 64.6205 26.952C65.0365 26.4293 65.3085 25.8853 65.4365 25.32C65.6178 24.808 65.7192 24.232 65.7405 23.592C65.7725 22.952 65.7885 22.44 65.7885 22.056L66.8765 22.456C65.8205 22.616 64.8605 22.76 63.9965 22.888C63.1325 23.016 62.3485 23.144 61.6445 23.272C60.9512 23.3893 60.3325 23.5333 59.7885 23.704C59.3298 23.864 58.9192 24.056 58.5565 24.28C58.2045 24.504 57.9218 24.776 57.7085 25.096C57.5058 25.416 57.4045 25.8053 57.4045 26.264C57.4045 26.712 57.5165 27.128 57.7405 27.512C57.9645 27.8853 58.3058 28.184 58.7645 28.408C59.2232 28.632 59.8098 28.744 60.5245 28.744ZM73.2713 31V13.72H76.2473V17.912L75.8313 17.368C76.0446 16.8133 76.3219 16.3067 76.6633 15.848C77.0046 15.3787 77.3993 14.9947 77.8473 14.696C78.2846 14.376 78.7699 14.1307 79.3033 13.96C79.8473 13.7787 80.4019 13.672 80.9673 13.64C81.5326 13.5973 82.0766 13.624 82.5993 13.72V16.856C82.0339 16.7067 81.4046 16.664 80.7113 16.728C80.0286 16.792 79.3993 17.0107 78.8233 17.384C78.2793 17.736 77.8473 18.1627 77.5273 18.664C77.2179 19.1653 76.9939 19.7253 76.8553 20.344C76.7166 20.952 76.6473 21.5973 76.6473 22.28V31H73.2713ZM90.0263 31.48C88.7463 31.48 87.6743 31.2453 86.8103 30.776C85.9463 30.296 85.2903 29.6667 84.8423 28.888C84.4049 28.0987 84.1863 27.2347 84.1863 26.296C84.1863 25.4213 84.3409 24.6533 84.6503 23.992C84.9596 23.3307 85.4183 22.7707 86.0263 22.312C86.6343 21.8427 87.3809 21.464 88.2663 21.176C89.0343 20.952 89.9036 20.7547 90.8743 20.584C91.8449 20.4133 92.8636 20.2533 93.9303 20.104C95.0076 19.9547 96.0743 19.8053 97.1303 19.656L95.9143 20.328C95.9356 18.9733 95.6476 17.9707 95.0503 17.32C94.4636 16.6587 93.4503 16.328 92.0103 16.328C91.1036 16.328 90.2716 16.5413 89.5143 16.968C88.7569 17.384 88.2289 18.0773 87.9303 19.048L84.8103 18.088C85.2369 16.6053 86.0476 15.4267 87.2423 14.552C88.4476 13.6773 90.0476 13.24 92.0423 13.24C93.5889 13.24 94.9329 13.5067 96.0743 14.04C97.2263 14.5627 98.0689 15.3947 98.6023 16.536C98.8796 17.1013 99.0503 17.6987 99.1143 18.328C99.1783 18.9573 99.2103 19.6347 99.2103 20.36V31H96.2503V27.048L96.8263 27.56C96.1116 28.8827 95.1996 29.8693 94.0903 30.52C92.9916 31.16 91.6369 31.48 90.0263 31.48ZM90.6183 28.744C91.5676 28.744 92.3836 28.5787 93.0663 28.248C93.7489 27.9067 94.2983 27.4747 94.7143 26.952C95.1303 26.4293 95.4023 25.8853 95.5303 25.32C95.7116 24.808 95.8129 24.232 95.8343 23.592C95.8663 22.952 95.8823 22.44 95.8823 22.056L96.9703 22.456C95.9143 22.616 94.9543 22.76 94.0903 22.888C93.2263 23.016 92.4423 23.144 91.7383 23.272C91.0449 23.3893 90.4263 23.5333 89.8823 23.704C89.4236 23.864 89.0129 24.056 88.6503 24.28C88.2983 24.504 88.0156 24.776 87.8023 25.096C87.5996 25.416 87.4983 25.8053 87.4983 26.264C87.4983 26.712 87.6103 27.128 87.8343 27.512C88.0583 27.8853 88.3996 28.184 88.8583 28.408C89.3169 28.632 89.9036 28.744 90.6183 28.744ZM107.412 31L101.14 13.72H104.516L109.108 26.808L113.7 13.72H117.076L110.804 31H107.412ZM126.998 31.48C125.28 31.48 123.771 31.1067 122.47 30.36C121.179 29.6027 120.171 28.552 119.446 27.208C118.731 25.8533 118.374 24.2853 118.374 22.504C118.374 20.616 118.726 18.9787 119.43 17.592C120.144 16.2053 121.136 15.1333 122.406 14.376C123.675 13.6187 125.152 13.24 126.838 13.24C128.598 13.24 130.096 13.6507 131.334 14.472C132.571 15.2827 133.494 16.44 134.102 17.944C134.72 19.448 134.966 21.2347 134.838 23.304H131.494V22.088C131.472 20.0827 131.088 18.6 130.342 17.64C129.606 16.68 128.48 16.2 126.966 16.2C125.291 16.2 124.032 16.728 123.19 17.784C122.347 18.84 121.926 20.3653 121.926 22.36C121.926 24.2587 122.347 25.7307 123.19 26.776C124.032 27.8107 125.248 28.328 126.838 28.328C127.883 28.328 128.784 28.0933 129.542 27.624C130.31 27.144 130.907 26.4613 131.334 25.576L134.614 26.616C133.942 28.1627 132.923 29.3627 131.558 30.216C130.192 31.0587 128.672 31.48 126.998 31.48ZM120.838 23.304V20.696H133.174V23.304H120.838ZM138.748 31V7.48H142.092V31H138.748Z" fill="white"/>
<defs>
<clipPath id="clip0_322_2982">
<rect width="28" height="28" fill="white" transform="translate(0 5)"/>
</clipPath>
</defs>
</svg>
