<svg width="204" height="39" viewBox="0 0 204 39" fill="none" xmlns="http://www.w3.org/2000/svg">
<path d="M0 15.0125C0 11.3547 0 9.52573 0.711862 8.12862C1.33804 6.89969 2.33719 5.90054 3.56612 5.27436C4.96323 4.5625 6.79215 4.5625 10.45 4.5625H18.425C22.0829 4.5625 23.9118 4.5625 25.3088 5.27436C26.5378 5.90054 27.537 6.89969 28.1631 8.12862C28.875 9.52573 28.875 11.3547 28.875 15.0125V22.9875C28.875 26.6454 28.875 28.4743 28.1631 29.8713C27.537 31.1003 26.5378 32.0995 25.3088 32.7256C23.9118 33.4375 22.0829 33.4375 18.425 33.4375H10.45C6.79215 33.4375 4.96323 33.4375 3.56612 32.7256C2.33719 32.0995 1.33804 31.1003 0.711862 29.8713C0 28.4743 0 26.6454 0 22.9875V15.0125Z" fill="#001E36"/>
<path d="M6.1875 25.7198V13.0223C6.1875 12.9359 6.22359 12.8865 6.30782 12.8865C7.55112 12.8865 8.79388 12.8125 10.0375 12.8125C12.0555 12.8125 14.2405 13.5025 15.0064 15.6136C15.1869 16.1319 15.2831 16.6625 15.2831 17.2178C15.2831 18.2791 15.0425 19.1551 14.5613 19.8461C13.2169 21.7764 10.8869 21.7464 8.79832 21.7464V25.7076C8.81461 25.8248 8.71468 25.8803 8.61785 25.8803H6.33188C6.23563 25.8803 6.1875 25.8309 6.1875 25.7198ZM8.81028 15.2681V19.4143C9.63847 19.4749 10.505 19.4815 11.3007 19.2169C12.1793 18.9634 12.6603 18.2031 12.6603 17.2918C12.6847 16.5154 12.2617 15.7704 11.5414 15.4902C10.7553 15.1633 9.65889 15.1437 8.81028 15.2681Z" fill="#31A8FF"/>
<path d="M22.7868 18.5954C22.4228 18.4035 22.035 18.2631 21.6342 18.1781C21.1192 18.057 19.0878 17.6325 19.087 18.6947C19.1051 19.2876 20.0464 19.5781 20.4623 19.7476C21.9224 20.2489 23.5747 21.1449 23.5422 22.9462C23.5869 25.1886 21.4142 26.085 19.5519 26.0852C18.5824 26.0952 17.5724 25.9451 16.6851 25.5289C16.6004 25.484 16.5459 25.3882 16.5495 25.2904V23.1448C16.5399 23.0588 16.6323 22.9836 16.7045 23.0455C17.5739 23.5713 18.6043 23.8266 19.6101 23.8402C20.054 23.8402 20.9339 23.7972 20.9273 23.1448C20.9273 22.5189 19.8747 22.231 19.4551 22.072C18.8468 21.8549 18.2702 21.5541 17.7408 21.178C17.001 20.6503 16.5369 19.8043 16.5495 18.8735C16.5452 16.7621 18.5451 15.8144 20.3462 15.814C21.1881 15.807 22.0923 15.8694 22.876 16.2113C22.9887 16.2444 23.0121 16.3632 23.0116 16.4695V18.4762C23.0188 18.6007 22.8805 18.6431 22.7868 18.5954Z" fill="#31A8FF"/>
<path d="M39.115 31V7.96H48.427C48.651 7.96 48.9283 7.97067 49.259 7.992C49.5897 8.00267 49.9043 8.03467 50.203 8.088C51.483 8.29067 52.5497 8.728 53.403 9.4C54.267 10.072 54.9123 10.92 55.339 11.944C55.7657 12.968 55.979 14.0987 55.979 15.336C55.979 16.584 55.7657 17.72 55.339 18.744C54.9123 19.768 54.267 20.616 53.403 21.288C52.5497 21.96 51.483 22.3973 50.203 22.6C49.9043 22.6427 49.5843 22.6747 49.243 22.696C48.9123 22.7173 48.6403 22.728 48.427 22.728H42.459V31H39.115ZM42.459 19.56H48.299C48.5123 19.56 48.747 19.5493 49.003 19.528C49.2697 19.5067 49.5203 19.4693 49.755 19.416C50.4377 19.256 50.987 18.9627 51.403 18.536C51.819 18.0987 52.1177 17.5973 52.299 17.032C52.4803 16.4667 52.571 15.9013 52.571 15.336C52.571 14.7707 52.4803 14.2107 52.299 13.656C52.1177 13.0907 51.819 12.5947 51.403 12.168C50.987 11.7307 50.4377 11.432 49.755 11.272C49.5203 11.208 49.2697 11.1653 49.003 11.144C48.747 11.1227 48.5123 11.112 48.299 11.112H42.459V19.56ZM71.3055 31V22.504C71.3055 21.832 71.2468 21.144 71.1295 20.44C71.0228 19.7253 70.8095 19.064 70.4895 18.456C70.1802 17.848 69.7375 17.3573 69.1615 16.984C68.5962 16.6107 67.8548 16.424 66.9375 16.424C66.3402 16.424 65.7748 16.5253 65.2415 16.728C64.7082 16.92 64.2388 17.2347 63.8335 17.672C63.4388 18.1093 63.1242 18.6853 62.8895 19.4C62.6655 20.1147 62.5535 20.984 62.5535 22.008L60.4735 21.224C60.4735 19.656 60.7668 18.2747 61.3535 17.08C61.9402 15.8747 62.7828 14.936 63.8815 14.264C64.9802 13.592 66.3082 13.256 67.8655 13.256C69.0602 13.256 70.0628 13.448 70.8735 13.832C71.6842 14.216 72.3402 14.7227 72.8415 15.352C73.3535 15.9707 73.7428 16.648 74.0095 17.384C74.2762 18.12 74.4575 18.84 74.5535 19.544C74.6495 20.248 74.6975 20.8667 74.6975 21.4V31H71.3055ZM59.1615 31V7.96H62.1535V20.392H62.5535V31H59.1615ZM86.369 31.48C84.641 31.48 83.1423 31.0907 81.873 30.312C80.6037 29.5333 79.6223 28.4613 78.929 27.096C78.2463 25.72 77.905 24.136 77.905 22.344C77.905 20.5413 78.257 18.9573 78.961 17.592C79.665 16.216 80.6517 15.1493 81.921 14.392C83.1903 13.624 84.673 13.24 86.369 13.24C88.097 13.24 89.5957 13.6293 90.865 14.408C92.1343 15.1867 93.1157 16.2587 93.809 17.624C94.5023 18.9893 94.849 20.5627 94.849 22.344C94.849 24.1467 94.497 25.736 93.793 27.112C93.0997 28.4773 92.1183 29.5493 90.849 30.328C89.5797 31.096 88.0863 31.48 86.369 31.48ZM86.369 28.328C88.0223 28.328 89.2543 27.7733 90.065 26.664C90.8863 25.544 91.297 24.104 91.297 22.344C91.297 20.5413 90.881 19.1013 90.049 18.024C89.2277 16.936 88.001 16.392 86.369 16.392C85.249 16.392 84.3263 16.648 83.601 17.16C82.8757 17.6613 82.337 18.36 81.985 19.256C81.633 20.1413 81.457 21.1707 81.457 22.344C81.457 24.1573 81.873 25.608 82.705 26.696C83.537 27.784 84.7583 28.328 86.369 28.328ZM108.253 31C107.165 31.2133 106.098 31.304 105.053 31.272C104.008 31.24 103.074 31.0373 102.253 30.664C101.432 30.2907 100.813 29.704 100.397 28.904C100.024 28.1893 99.821 27.464 99.789 26.728C99.7677 25.9813 99.757 25.1387 99.757 24.2V8.92H103.117V24.04C103.117 24.7333 103.122 25.336 103.133 25.848C103.154 26.36 103.266 26.792 103.469 27.144C103.853 27.8053 104.461 28.184 105.293 28.28C106.136 28.3653 107.122 28.328 108.253 28.168V31ZM96.445 16.408V13.72H108.253V16.408H96.445ZM118.619 31.48C116.891 31.48 115.392 31.0907 114.123 30.312C112.854 29.5333 111.872 28.4613 111.179 27.096C110.496 25.72 110.155 24.136 110.155 22.344C110.155 20.5413 110.507 18.9573 111.211 17.592C111.915 16.216 112.902 15.1493 114.171 14.392C115.44 13.624 116.923 13.24 118.619 13.24C120.347 13.24 121.846 13.6293 123.115 14.408C124.384 15.1867 125.366 16.2587 126.059 17.624C126.752 18.9893 127.099 20.5627 127.099 22.344C127.099 24.1467 126.747 25.736 126.043 27.112C125.35 28.4773 124.368 29.5493 123.099 30.328C121.83 31.096 120.336 31.48 118.619 31.48ZM118.619 28.328C120.272 28.328 121.504 27.7733 122.315 26.664C123.136 25.544 123.547 24.104 123.547 22.344C123.547 20.5413 123.131 19.1013 122.299 18.024C121.478 16.936 120.251 16.392 118.619 16.392C117.499 16.392 116.576 16.648 115.851 17.16C115.126 17.6613 114.587 18.36 114.235 19.256C113.883 20.1413 113.707 21.1707 113.707 22.344C113.707 24.1573 114.123 25.608 114.955 26.696C115.787 27.784 117.008 28.328 118.619 28.328ZM136.911 31.464C134.809 31.464 133.097 31 131.775 30.072C130.452 29.144 129.641 27.8373 129.343 26.152L132.766 25.624C132.98 26.52 133.471 27.2293 134.239 27.752C135.017 28.264 135.983 28.52 137.135 28.52C138.18 28.52 138.996 28.3067 139.583 27.88C140.18 27.4533 140.479 26.8667 140.479 26.12C140.479 25.6827 140.372 25.3307 140.159 25.064C139.956 24.7867 139.524 24.5253 138.863 24.28C138.201 24.0347 137.193 23.7307 135.839 23.368C134.356 22.984 133.177 22.5733 132.303 22.136C131.439 21.688 130.82 21.1707 130.447 20.584C130.084 19.9867 129.903 19.2667 129.903 18.424C129.903 17.3787 130.18 16.4667 130.735 15.688C131.289 14.9093 132.068 14.3067 133.071 13.88C134.084 13.4533 135.268 13.24 136.623 13.24C137.945 13.24 139.124 13.448 140.159 13.864C141.193 14.28 142.031 14.872 142.671 15.64C143.311 16.3973 143.695 17.288 143.823 18.312L140.399 18.936C140.281 18.104 139.892 17.448 139.231 16.968C138.569 16.488 137.711 16.2267 136.655 16.184C135.641 16.1413 134.82 16.312 134.191 16.696C133.561 17.0693 133.247 17.5867 133.247 18.248C133.247 18.632 133.364 18.9573 133.599 19.224C133.844 19.4907 134.313 19.7467 135.007 19.992C135.7 20.2373 136.724 20.5307 138.079 20.872C139.529 21.2453 140.681 21.6613 141.535 22.12C142.388 22.568 142.996 23.1067 143.359 23.736C143.732 24.3547 143.919 25.1067 143.919 25.992C143.919 27.6987 143.295 29.0373 142.047 30.008C140.809 30.9787 139.097 31.464 136.911 31.464ZM159.587 31V22.504C159.587 21.832 159.528 21.144 159.411 20.44C159.304 19.7253 159.091 19.064 158.771 18.456C158.461 17.848 158.019 17.3573 157.443 16.984C156.877 16.6107 156.136 16.424 155.219 16.424C154.621 16.424 154.056 16.5253 153.523 16.728C152.989 16.92 152.52 17.2347 152.115 17.672C151.72 18.1093 151.405 18.6853 151.171 19.4C150.947 20.1147 150.835 20.984 150.835 22.008L148.755 21.224C148.755 19.656 149.048 18.2747 149.635 17.08C150.221 15.8747 151.064 14.936 152.163 14.264C153.261 13.592 154.589 13.256 156.147 13.256C157.341 13.256 158.344 13.448 159.155 13.832C159.965 14.216 160.621 14.7227 161.123 15.352C161.635 15.9707 162.024 16.648 162.291 17.384C162.557 18.12 162.739 18.84 162.835 19.544C162.931 20.248 162.979 20.8667 162.979 21.4V31H159.587ZM147.443 31V7.96H150.435V20.392H150.835V31H147.443ZM174.65 31.48C172.922 31.48 171.424 31.0907 170.154 30.312C168.885 29.5333 167.904 28.4613 167.21 27.096C166.528 25.72 166.186 24.136 166.186 22.344C166.186 20.5413 166.538 18.9573 167.242 17.592C167.946 16.216 168.933 15.1493 170.202 14.392C171.472 13.624 172.954 13.24 174.65 13.24C176.378 13.24 177.877 13.6293 179.146 14.408C180.416 15.1867 181.397 16.2587 182.09 17.624C182.784 18.9893 183.13 20.5627 183.13 22.344C183.13 24.1467 182.778 25.736 182.074 27.112C181.381 28.4773 180.4 29.5493 179.13 30.328C177.861 31.096 176.368 31.48 174.65 31.48ZM174.65 28.328C176.304 28.328 177.536 27.7733 178.346 26.664C179.168 25.544 179.578 24.104 179.578 22.344C179.578 20.5413 179.162 19.1013 178.33 18.024C177.509 16.936 176.282 16.392 174.65 16.392C173.53 16.392 172.608 16.648 171.882 17.16C171.157 17.6613 170.618 18.36 170.266 19.256C169.914 20.1413 169.738 21.1707 169.738 22.344C169.738 24.1573 170.154 25.608 170.986 26.696C171.818 27.784 173.04 28.328 174.65 28.328ZM194.758 31.48C193.105 31.48 191.718 31.08 190.598 30.28C189.478 29.4693 188.63 28.376 188.054 27C187.478 25.624 187.19 24.072 187.19 22.344C187.19 20.616 187.473 19.064 188.038 17.688C188.614 16.312 189.457 15.2293 190.566 14.44C191.686 13.64 193.062 13.24 194.694 13.24C196.316 13.24 197.713 13.64 198.886 14.44C200.07 15.2293 200.982 16.312 201.622 17.688C202.262 19.0533 202.582 20.6053 202.582 22.344C202.582 24.072 202.262 25.6293 201.622 27.016C200.993 28.392 200.092 29.48 198.918 30.28C197.756 31.08 196.369 31.48 194.758 31.48ZM186.63 38.68V13.72H189.606V26.152H189.99V38.68H186.63ZM194.294 28.456C195.361 28.456 196.241 28.184 196.934 27.64C197.638 27.096 198.161 26.3653 198.502 25.448C198.854 24.52 199.03 23.4853 199.03 22.344C199.03 21.2133 198.854 20.1893 198.502 19.272C198.161 18.3547 197.633 17.624 196.918 17.08C196.204 16.536 195.292 16.264 194.182 16.264C193.137 16.264 192.273 16.52 191.59 17.032C190.918 17.544 190.417 18.2587 190.086 19.176C189.766 20.0933 189.606 21.1493 189.606 22.344C189.606 23.5387 189.766 24.5947 190.086 25.512C190.406 26.4293 190.913 27.1493 191.606 27.672C192.3 28.1947 193.196 28.456 194.294 28.456Z" fill="white"/>
</svg>
