<svg width="110" height="38" viewBox="0 0 110 38" fill="none" xmlns="http://www.w3.org/2000/svg">
<path d="M28.2821 16.1989H26.8464L26.0603 20.3351H27.3363C27.4046 20.3401 27.485 20.3439 27.5655 20.3439C28.1834 20.3439 28.7574 20.1576 29.24 19.8376L29.2278 19.8451C29.68 19.4326 29.9871 18.8626 30.0663 18.2189L30.0675 18.2064C30.126 18.0339 30.1602 17.8364 30.1602 17.6301C30.1602 17.2664 30.0541 16.9276 29.8725 16.6451L29.8762 16.6514C29.5142 16.3589 29.0523 16.1814 28.549 16.1814C28.4551 16.1814 28.3613 16.1876 28.2699 16.2001L28.2821 16.1989ZM32.2345 18.3576C32.1431 18.8551 31.981 19.2989 31.7592 19.7026L31.7701 19.6814C31.5337 20.1039 31.2497 20.4664 30.9195 20.7764L30.9158 20.7789C30.5307 21.1564 30.0639 21.4514 29.5447 21.6314L29.5191 21.6389C28.9816 21.8026 28.365 21.8976 27.7251 21.8976C27.6666 21.8976 27.6093 21.8964 27.552 21.8951H27.5606H25.7629L25.2645 24.5226H23.1658L25.039 14.6414H29.073C29.162 14.6326 29.2668 14.6276 29.3716 14.6276C30.2906 14.6276 31.1242 15.0076 31.7287 15.6226C32.1175 16.1351 32.3527 16.7889 32.3527 17.4976C32.3527 17.8039 32.3088 18.1001 32.2272 18.3789L32.232 18.3576H32.2345ZM20.6649 21.8964L21.4924 17.5239C21.5351 17.4051 21.5595 17.2689 21.5595 17.1264C21.5595 16.8976 21.4961 16.6839 21.3864 16.5026L21.3888 16.5076C21.1512 16.3301 20.8538 16.2226 20.532 16.2226C20.465 16.2226 20.3992 16.2276 20.3346 16.2364L20.3419 16.2351H18.6783L17.6058 21.8976H15.523L17.3962 12.0151H19.4778L18.9794 14.6426H20.8343C20.9476 14.6301 21.078 14.6226 21.2109 14.6226C21.9726 14.6226 22.6795 14.8639 23.262 15.2776L23.2499 15.2701C23.5631 15.6339 23.7544 16.1151 23.7544 16.6414C23.7544 16.8764 23.7166 17.1026 23.646 17.3139L23.6496 17.2989L22.7782 21.8976L20.6649 21.8964ZM14.5358 20.7789C14.1507 21.1576 13.6839 21.4514 13.1647 21.6314L13.1391 21.6389C12.6016 21.8026 11.985 21.8976 11.3463 21.8976C11.289 21.8976 11.2305 21.8964 11.1733 21.8951H11.1818H9.38292L8.88445 24.5214H6.78577L8.65898 14.6401H12.6955C12.7845 14.6314 12.8893 14.6264 12.9941 14.6264C13.913 14.6264 14.7466 15.0064 15.3511 15.6214C15.7399 16.1339 15.9739 16.7876 15.9739 17.4964C15.9739 17.8039 15.93 18.1001 15.8484 18.3801L15.8533 18.3589C15.6753 19.3264 15.2037 20.1601 14.5382 20.7764L14.5346 20.7801L14.5358 20.7789ZM19.501 9.14014C9.40852 9.14014 1.22461 13.5539 1.22461 19.0001C1.22461 24.4464 9.4073 28.8614 19.501 28.8614C29.5947 28.8614 37.7774 24.4451 37.7774 19.0001C37.7774 13.5551 29.5947 9.14014 19.501 9.14014ZM11.9009 16.1989H10.4627L9.67786 20.3351H10.9539C11.0221 20.3401 11.1014 20.3439 11.1818 20.3439C11.7997 20.3439 12.375 20.1576 12.8576 19.8376L12.8454 19.8451C13.2975 19.4339 13.6035 18.8626 13.6815 18.2189L13.6827 18.2064C13.7424 18.0339 13.7765 17.8351 13.7765 17.6289C13.7765 17.2664 13.6717 16.9276 13.4901 16.6464L13.4938 16.6526C13.1318 16.3601 12.6699 16.1826 12.1665 16.1826C12.0727 16.1826 11.9789 16.1889 11.8875 16.2014L11.8984 16.2001L11.9009 16.1989Z" fill="white"/>
<path d="M49.24 31V7.96H58.552C58.776 7.96 59.0533 7.97067 59.384 7.992C59.7147 8.00267 60.0293 8.03467 60.328 8.088C61.608 8.29067 62.6747 8.728 63.528 9.4C64.392 10.072 65.0373 10.92 65.464 11.944C65.8907 12.968 66.104 14.0987 66.104 15.336C66.104 16.584 65.8907 17.72 65.464 18.744C65.0373 19.768 64.392 20.616 63.528 21.288C62.6747 21.96 61.608 22.3973 60.328 22.6C60.0293 22.6427 59.7093 22.6747 59.368 22.696C59.0373 22.7173 58.7653 22.728 58.552 22.728H52.584V31H49.24ZM52.584 19.56H58.424C58.6373 19.56 58.872 19.5493 59.128 19.528C59.3947 19.5067 59.6453 19.4693 59.88 19.416C60.5627 19.256 61.112 18.9627 61.528 18.536C61.944 18.0987 62.2427 17.5973 62.424 17.032C62.6053 16.4667 62.696 15.9013 62.696 15.336C62.696 14.7707 62.6053 14.2107 62.424 13.656C62.2427 13.0907 61.944 12.5947 61.528 12.168C61.112 11.7307 60.5627 11.432 59.88 11.272C59.6453 11.208 59.3947 11.1653 59.128 11.144C58.872 11.1227 58.6373 11.112 58.424 11.112H52.584V19.56ZM69.3025 31V7.96H72.6465V17.896H84.1665V7.96H87.5265V31H84.1665V21.048H72.6465V31H69.3025ZM92.0213 31V7.96H101.333C101.557 7.96 101.835 7.97067 102.165 7.992C102.496 8.00267 102.811 8.03467 103.109 8.088C104.389 8.29067 105.456 8.728 106.309 9.4C107.173 10.072 107.819 10.92 108.245 11.944C108.672 12.968 108.885 14.0987 108.885 15.336C108.885 16.584 108.672 17.72 108.245 18.744C107.819 19.768 107.173 20.616 106.309 21.288C105.456 21.96 104.389 22.3973 103.109 22.6C102.811 22.6427 102.491 22.6747 102.149 22.696C101.819 22.7173 101.547 22.728 101.333 22.728H95.3653V31H92.0213ZM95.3653 19.56H101.205C101.419 19.56 101.653 19.5493 101.909 19.528C102.176 19.5067 102.427 19.4693 102.661 19.416C103.344 19.256 103.893 18.9627 104.309 18.536C104.725 18.0987 105.024 17.5973 105.205 17.032C105.387 16.4667 105.477 15.9013 105.477 15.336C105.477 14.7707 105.387 14.2107 105.205 13.656C105.024 13.0907 104.725 12.5947 104.309 12.168C103.893 11.7307 103.344 11.432 102.661 11.272C102.427 11.208 102.176 11.1653 101.909 11.144C101.653 11.1227 101.419 11.112 101.205 11.112H95.3653V19.56Z" fill="white"/>
</svg>
