<svg width="126" height="38" viewBox="0 0 126 38" fill="none" xmlns="http://www.w3.org/2000/svg">
<path d="M4 5H24C26.2 5 28 6.8 28 9V29C28 31.2 26.2 33 24 33H4C1.8 33 0 31.2 0 29V9C0 6.8 1.8 5 4 5Z" fill="white"/>
<path d="M25.5 19C25.5 17.4 23.6 16.1 20.8 15.2C21.5 12.3 21.2 10 19.9 9.3C19.5 9.1 19.2 9 18.8 9C17.5 9 15.9 9.9 14.3 11.5C12.6 9.9 11 9 9.7 9C9.3 9 8.9 9.1 8.6 9.3C7.3 10 7 12.3 7.7 15.2C4.9 16.1 3 17.4 3 19C3 20.6 4.9 21.9 7.7 22.8C7 25.7 7.2 28 8.6 28.8C8.9 29 9.3 29.1 9.7 29.1C11 29.1 12.6 28.2 14.2 26.6C15.8 28.2 17.5 29.1 18.7 29.1C19.1 29.1 19.5 29 19.8 28.8C21.1 28 21.4 25.7 20.7 22.8C23.6 21.9 25.5 20.5 25.5 19ZM18.8 10.1C19 10.1 19.2 10.1 19.3 10.2C19.9 10.6 20.2 11.9 20 13.6C19.9 14 19.9 14.5 19.8 14.9C18.9 14.7 17.9 14.5 16.9 14.4C16.3 13.6 15.7 12.8 15.1 12.2C16.5 10.8 17.9 10.1 18.8 10.1ZM17.3 20.8C17 21.4 16.6 21.9 16.3 22.5C15.6 22.5 15 22.6 14.3 22.6C13.6 22.6 12.9 22.6 12.3 22.5C11.9 22 11.6 21.4 11.3 20.8C11 20.2 10.7 19.6 10.4 19C10.7 18.4 11 17.8 11.3 17.2C11.6 16.6 12 16 12.4 15.5C13 15.5 13.7 15.4 14.4 15.4C15.1 15.4 15.7 15.4 16.4 15.5C16.8 16 17.1 16.6 17.5 17.2C17.8 17.8 18.1 18.4 18.4 19C18 19.6 17.6 20.2 17.3 20.8ZM18.8 20.3C19 20.9 19.2 21.4 19.4 22C18.8 22.1 18.2 22.2 17.6 22.3C17.8 22 18 21.7 18.2 21.3C18.4 21 18.6 20.6 18.8 20.3ZM14.2 25C13.8 24.6 13.4 24.1 13 23.6C13.4 23.6 13.8 23.6 14.2 23.6C14.6 23.6 15 23.6 15.4 23.6C15 24.1 14.6 24.6 14.2 25ZM10.8 22.3C10.2 22.2 9.6 22.1 9 22C9.2 21.4 9.4 20.9 9.6 20.3C9.8 20.6 10 21 10.2 21.3C10.4 21.7 10.6 22 10.8 22.3ZM9.7 17.7C9.5 17.1 9.3 16.5 9.1 16C9.7 15.9 10.3 15.8 10.9 15.7C10.7 16 10.5 16.4 10.3 16.7C10 17 9.8 17.4 9.7 17.7ZM14.2 13C14.6 13.4 15 13.9 15.4 14.4C15 14.4 14.6 14.4 14.2 14.4C13.8 14.4 13.4 14.4 13 14.4C13.4 13.9 13.8 13.4 14.2 13ZM18.2 16.7C18 16.3 17.8 16 17.6 15.7C18.2 15.8 18.8 15.9 19.4 16C19.2 16.6 19 17.2 18.8 17.7C18.6 17.4 18.4 17 18.2 16.7ZM8.5 13.6C8.3 11.9 8.5 10.6 9.2 10.2C9.3 10.1 9.5 10.1 9.7 10.1C10.6 10.1 12 10.8 13.5 12.3C12.9 13 12.3 13.7 11.7 14.5C10.7 14.6 9.7 14.8 8.8 15C8.6 14.5 8.5 14 8.5 13.6ZM6.7 21.2C5.1 20.5 4.1 19.7 4.1 18.9C4.1 18.2 5.1 17.3 6.7 16.6C7.1 16.4 7.5 16.3 8 16.2C8.3 17.1 8.6 18 9 18.9C8.6 19.8 8.2 20.7 8 21.6C7.5 21.6 7.1 21.4 6.7 21.2ZM9.2 27.8C8.6 27.4 8.3 26.1 8.5 24.4C8.6 24 8.6 23.5 8.8 23C9.7 23.2 10.6 23.4 11.6 23.5C12.2 24.3 12.8 25.1 13.5 25.8C12 27.2 10.6 28 9.7 28C9.5 27.9 9.3 27.9 9.2 27.8ZM20 24.4C20.2 26.1 20 27.4 19.3 27.8C19.2 27.9 19 27.9 18.8 27.9C17.9 27.9 16.5 27.2 15 25.7C15.6 25 16.3 24.3 16.9 23.4C17.9 23.3 18.9 23.2 19.7 22.9C19.8 23.5 19.9 24 20 24.4ZM21.8 21.2C21.4 21.4 21 21.5 20.5 21.7C20.2 20.8 19.9 19.9 19.5 19C19.9 18.1 20.3 17.1 20.5 16.3C21 16.4 21.4 16.6 21.8 16.7C23.4 17.4 24.4 18.2 24.4 19C24.4 19.7 23.4 20.6 21.8 21.2Z" fill="#202020"/>
<path d="M14.3002 21.0999C15.5002 21.0999 16.4002 20.1999 16.4002 18.9999C16.4002 17.7999 15.5002 16.8999 14.3002 16.8999C13.1002 16.8999 12.2002 17.7999 12.2002 18.9999C12.2002 20.1999 13.1002 21.0999 14.3002 21.0999Z" fill="#202020"/>
<path d="M38.24 31V7.96H47.552C47.776 7.96 48.0533 7.97067 48.384 7.992C48.7147 8.00267 49.0293 8.03467 49.328 8.088C50.608 8.29067 51.6747 8.728 52.528 9.4C53.392 10.072 54.0373 10.92 54.464 11.944C54.8907 12.968 55.104 14.0987 55.104 15.336C55.104 17.1707 54.6347 18.7547 53.696 20.088C52.7573 21.4107 51.3493 22.2373 49.472 22.568L48.112 22.728H41.584V31H38.24ZM51.712 31L47.168 21.624L50.544 20.76L55.536 31H51.712ZM41.584 19.56H47.424C47.6373 19.56 47.872 19.5493 48.128 19.528C48.3947 19.5067 48.6453 19.4693 48.88 19.416C49.5627 19.256 50.112 18.9627 50.528 18.536C50.944 18.0987 51.2427 17.5973 51.424 17.032C51.6053 16.4667 51.696 15.9013 51.696 15.336C51.696 14.7707 51.6053 14.2107 51.424 13.656C51.2427 13.0907 50.944 12.5947 50.528 12.168C50.112 11.7307 49.5627 11.432 48.88 11.272C48.6453 11.208 48.3947 11.1653 48.128 11.144C47.872 11.1227 47.6373 11.112 47.424 11.112H41.584V19.56ZM66.7165 31.48C64.9992 31.48 63.4898 31.1067 62.1885 30.36C60.8978 29.6027 59.8898 28.552 59.1645 27.208C58.4498 25.8533 58.0925 24.2853 58.0925 22.504C58.0925 20.616 58.4445 18.9787 59.1485 17.592C59.8632 16.2053 60.8552 15.1333 62.1245 14.376C63.3938 13.6187 64.8712 13.24 66.5565 13.24C68.3165 13.24 69.8152 13.6507 71.0525 14.472C72.2898 15.2827 73.2125 16.44 73.8205 17.944C74.4392 19.448 74.6845 21.2347 74.5565 23.304H71.2125V22.088C71.1912 20.0827 70.8072 18.6 70.0605 17.64C69.3245 16.68 68.1992 16.2 66.6845 16.2C65.0098 16.2 63.7512 16.728 62.9085 17.784C62.0658 18.84 61.6445 20.3653 61.6445 22.36C61.6445 24.2587 62.0658 25.7307 62.9085 26.776C63.7512 27.8107 64.9672 28.328 66.5565 28.328C67.6018 28.328 68.5032 28.0933 69.2605 27.624C70.0285 27.144 70.6258 26.4613 71.0525 25.576L74.3325 26.616C73.6605 28.1627 72.6418 29.3627 71.2765 30.216C69.9112 31.0587 68.3912 31.48 66.7165 31.48ZM60.5565 23.304V20.696H72.8925V23.304H60.5565ZM82.7138 31.48C81.4338 31.48 80.3618 31.2453 79.4978 30.776C78.6338 30.296 77.9778 29.6667 77.5298 28.888C77.0924 28.0987 76.8738 27.2347 76.8738 26.296C76.8738 25.4213 77.0284 24.6533 77.3378 23.992C77.6471 23.3307 78.1058 22.7707 78.7138 22.312C79.3218 21.8427 80.0684 21.464 80.9538 21.176C81.7218 20.952 82.5911 20.7547 83.5618 20.584C84.5324 20.4133 85.5511 20.2533 86.6178 20.104C87.6951 19.9547 88.7618 19.8053 89.8178 19.656L88.6018 20.328C88.6231 18.9733 88.3351 17.9707 87.7378 17.32C87.1511 16.6587 86.1378 16.328 84.6978 16.328C83.7911 16.328 82.9591 16.5413 82.2018 16.968C81.4444 17.384 80.9164 18.0773 80.6178 19.048L77.4978 18.088C77.9244 16.6053 78.7351 15.4267 79.9298 14.552C81.1351 13.6773 82.7351 13.24 84.7298 13.24C86.2764 13.24 87.6204 13.5067 88.7618 14.04C89.9138 14.5627 90.7564 15.3947 91.2898 16.536C91.5671 17.1013 91.7378 17.6987 91.8018 18.328C91.8658 18.9573 91.8978 19.6347 91.8978 20.36V31H88.9378V27.048L89.5138 27.56C88.7991 28.8827 87.8871 29.8693 86.7778 30.52C85.6791 31.16 84.3244 31.48 82.7138 31.48ZM83.3058 28.744C84.2551 28.744 85.0711 28.5787 85.7538 28.248C86.4364 27.9067 86.9858 27.4747 87.4018 26.952C87.8178 26.4293 88.0898 25.8853 88.2178 25.32C88.3991 24.808 88.5004 24.232 88.5218 23.592C88.5538 22.952 88.5698 22.44 88.5698 22.056L89.6578 22.456C88.6018 22.616 87.6418 22.76 86.7778 22.888C85.9138 23.016 85.1298 23.144 84.4258 23.272C83.7324 23.3893 83.1138 23.5333 82.5698 23.704C82.1111 23.864 81.7004 24.056 81.3378 24.28C80.9858 24.504 80.7031 24.776 80.4898 25.096C80.2871 25.416 80.1858 25.8053 80.1858 26.264C80.1858 26.712 80.2978 27.128 80.5218 27.512C80.7458 27.8853 81.0871 28.184 81.5458 28.408C82.0044 28.632 82.5911 28.744 83.3058 28.744ZM103.445 31.48C101.674 31.48 100.17 31.0853 98.9325 30.296C97.6952 29.5067 96.7458 28.424 96.0845 27.048C95.4338 25.672 95.1032 24.1093 95.0925 22.36C95.1032 20.5787 95.4445 19.0053 96.1165 17.64C96.7885 16.264 97.7485 15.1867 98.9965 14.408C100.245 13.6293 101.743 13.24 103.493 13.24C105.381 13.24 106.991 13.7093 108.325 14.648C109.669 15.5867 110.554 16.872 110.981 18.504L107.653 19.464C107.322 18.4933 106.778 17.7413 106.021 17.208C105.274 16.664 104.415 16.392 103.445 16.392C102.346 16.392 101.445 16.6533 100.741 17.176C100.037 17.688 99.5138 18.392 99.1725 19.288C98.8312 20.184 98.6552 21.208 98.6445 22.36C98.6552 24.1413 99.0605 25.5813 99.8605 26.68C100.671 27.7787 101.866 28.328 103.445 28.328C104.522 28.328 105.391 28.0827 106.053 27.592C106.725 27.0907 107.237 26.376 107.589 25.448L110.981 26.248C110.415 27.9333 109.482 29.2293 108.181 30.136C106.879 31.032 105.301 31.48 103.445 31.48ZM124.128 31C123.04 31.2133 121.973 31.304 120.928 31.272C119.883 31.24 118.949 31.0373 118.128 30.664C117.307 30.2907 116.688 29.704 116.272 28.904C115.899 28.1893 115.696 27.464 115.664 26.728C115.643 25.9813 115.632 25.1387 115.632 24.2V8.92H118.992V24.04C118.992 24.7333 118.997 25.336 119.008 25.848C119.029 26.36 119.141 26.792 119.344 27.144C119.728 27.8053 120.336 28.184 121.168 28.28C122.011 28.3653 122.997 28.328 124.128 28.168V31ZM112.32 16.408V13.72H124.128V16.408H112.32Z" fill="white"/>
</svg>
