<svg width="22" height="22" viewBox="0 0 22 22" fill="none" xmlns="http://www.w3.org/2000/svg">
<path d="M16.1472 9.24912C16.4377 9.54157 16.8279 9.70033 17.2403 9.70033C17.6526 9.70033 18.0428 9.53879 18.3333 9.24912L21.5462 6.03494C21.8367 5.74249 21.9972 5.35534 21.9972 4.94034C21.9972 4.52534 21.8367 4.13819 21.5462 3.84574L18.1369 0.436588C17.553 -0.145529 16.5346 -0.145529 15.9507 0.436588L12.7406 3.65077C12.4501 3.94322 12.2896 4.33037 12.2896 4.74537C12.2896 5.16037 12.4501 5.54752 12.7406 5.83997L16.1472 9.24912ZM13.676 4.58661L16.8888 1.37243C16.9442 1.31673 17.0106 1.30837 17.0438 1.30837C17.077 1.30837 17.1434 1.31673 17.1987 1.37243L20.6081 4.78437C20.6634 4.84007 20.6717 4.90692 20.6717 4.94034C20.6717 4.97376 20.6634 5.04061 20.6081 5.09631L17.398 8.31049C17.3426 8.3662 17.2762 8.37455 17.243 8.37455C17.2098 8.37455 17.1434 8.3662 17.0881 8.31049L13.676 4.90135C13.6206 4.84564 13.6123 4.77879 13.6123 4.74537C13.6123 4.71195 13.6206 4.64232 13.676 4.58661ZM5.82516 12.7613C5.24126 12.1792 4.22013 12.1792 3.63899 12.7613L3.2156 13.1847C2.7922 13.6108 2.3439 14.3656 2.17786 14.9422L0.763774 19.808C0.64478 20.2147 0.697359 20.5934 0.91044 20.8775C1.10415 21.1366 1.41409 21.2842 1.76 21.2842C1.89836 21.2842 2.04503 21.2619 2.1917 21.2146L7.23925 19.652C7.80931 19.4766 8.55925 19.0226 8.97987 18.602L9.22893 18.3541C9.5195 18.0617 9.68 17.6745 9.68 17.2595C9.68 16.8445 9.5195 16.4574 9.22893 16.1649L5.82516 12.7613ZM8.29358 17.4183L8.04453 17.6662C7.77887 17.9335 7.20881 18.2761 6.84906 18.3875L3.82994 19.3206L2.68704 17.9419L3.45082 15.3154C3.55597 14.9561 3.89082 14.3879 4.15371 14.1261L4.57711 13.7027C4.63245 13.647 4.69887 13.6387 4.73208 13.6387C4.76528 13.6387 4.8317 13.647 4.88704 13.7027L8.29082 17.1091C8.34616 17.1648 8.35447 17.2317 8.35447 17.2651C8.35723 17.2985 8.34893 17.3653 8.29358 17.4183ZM6.04377 0.436588C5.45987 -0.145529 4.44151 -0.145529 3.85761 0.436588L0.451069 3.84574C0.160503 4.13819 0 4.52534 0 4.94034C0 5.35534 0.160503 5.74249 0.451069 6.03494L15.9535 21.5488C16.244 21.8412 16.6342 22 17.0465 22C17.4589 22 17.8491 21.8385 18.1396 21.5488L21.5489 18.1369C21.8395 17.8444 22 17.4573 22 17.0423C22 16.6273 21.8395 16.2401 21.5489 15.9477L6.04377 0.436588ZM20.6081 17.1982L17.2015 20.6102C17.1462 20.6659 17.0797 20.6742 17.0465 20.6742C17.0133 20.6742 16.9469 20.6659 16.8916 20.6102L1.38918 5.09631C1.33384 5.04061 1.32553 4.97376 1.32553 4.94034C1.32553 4.90692 1.33384 4.84007 1.38918 4.78437L4.79572 1.37243C4.85107 1.31673 4.91748 1.30837 4.95069 1.30837C4.9839 1.30837 5.05031 1.31673 5.10566 1.37243L5.5678 1.83478L3.98767 3.41959C3.72755 3.67862 3.72755 4.09919 3.98767 4.35822C4.11774 4.48634 4.28654 4.55319 4.45535 4.55319C4.62415 4.55319 4.79572 4.48913 4.92302 4.35822L6.50591 2.77341L7.27522 3.54493L6.5917 4.2301C6.33434 4.48913 6.33434 4.9097 6.5917 5.16873C6.72176 5.29685 6.89057 5.3637 7.05937 5.3637C7.22818 5.3637 7.39975 5.29964 7.52704 5.16873L8.21057 4.48356L8.97987 5.25507L7.39698 6.83988C7.13686 7.09891 7.13686 7.51948 7.39698 7.77851C7.52704 7.90663 7.69585 7.97348 7.86465 7.97348C8.03346 7.97348 8.20226 7.90942 8.33233 7.77851L9.91522 6.1937L10.6873 6.96522L10.0038 7.65039C9.74642 7.90942 9.74642 8.32999 10.0038 8.58902C10.1338 8.71992 10.3026 8.78399 10.4714 8.78399C10.6403 8.78399 10.8118 8.71992 10.9391 8.58902L11.6226 7.90385L12.3947 8.67536L10.8118 10.2602C10.5545 10.5192 10.5545 10.9398 10.8118 11.1988C10.9419 11.3269 11.1107 11.3938 11.2795 11.3938C11.4483 11.3938 11.6199 11.3297 11.7472 11.1988L13.3301 9.61399L14.1021 10.3855L13.4186 11.0707C13.1613 11.3297 13.1613 11.7503 13.4186 12.0093C13.5487 12.1402 13.7175 12.2043 13.8863 12.2043C14.0551 12.2043 14.2267 12.1402 14.354 12.0093L15.0375 11.3241L15.8068 12.0956L14.2239 13.6805C13.9638 13.9395 13.9638 14.3601 14.2239 14.6191C14.354 14.75 14.5228 14.8141 14.6916 14.8141C14.8604 14.8141 15.0292 14.75 15.1592 14.6191L16.7421 13.0343L17.5114 13.8058L16.8279 14.491C16.5706 14.75 16.5706 15.1706 16.8279 15.4296C16.958 15.5577 17.1268 15.6246 17.2956 15.6246C17.4644 15.6246 17.636 15.5605 17.7633 15.4296L18.4468 14.7444L19.2189 15.5159L17.636 17.1007C17.3759 17.3598 17.3759 17.7803 17.636 18.0394C17.766 18.1675 17.9348 18.2343 18.1036 18.2343C18.2725 18.2343 18.444 18.1703 18.5713 18.0394L20.1542 16.4546L20.5942 16.8974C20.6496 16.9531 20.6579 17.02 20.6579 17.0534C20.6579 17.0868 20.6634 17.1425 20.6081 17.1982Z" fill="#72F443"/>
</svg>
