<svg width="23" height="23" viewBox="0 0 23 23" fill="none" xmlns="http://www.w3.org/2000/svg">
<path d="M22.5009 11.2583C22.5026 13.4701 21.8522 15.6332 20.6312 17.4774C19.4102 19.3216 17.6727 20.7649 15.6359 21.6271C13.5991 22.4892 11.3534 22.7318 9.17942 22.3247C7.00547 21.9175 4.99976 20.8786 3.413 19.3379C1.82624 17.7971 0.728824 15.8228 0.257938 13.6617C-0.212948 11.5007 -0.0364156 9.24881 0.765468 7.18755C1.56735 5.12629 2.95901 3.34711 4.76648 2.07241C6.57396 0.797715 8.71706 0.084054 10.9279 0.0206373C11.1406 -0.00687909 11.356 -0.00687909 11.5688 0.0206373C14.4951 0.102027 17.2743 1.32141 19.3157 3.41963C21.3572 5.51784 22.4999 8.33088 22.5009 11.2583ZM7.48468 20.1655C7.72532 20.2668 7.96926 20.3583 8.21653 20.4397C6.74262 17.8818 5.9719 14.9793 5.98263 12.0271H1.60579C1.74858 13.7913 2.37206 15.4827 3.4085 16.9174C4.44494 18.3522 5.85471 19.4756 7.48468 20.1655ZM2.33479 7.49537C1.93614 8.43643 1.69097 9.43532 1.60863 10.454H5.98263C5.97375 7.51958 6.73313 4.63395 8.18526 2.08401C7.94937 2.16264 7.71584 2.25074 7.48468 2.34832C5.16552 3.33122 3.31897 5.17675 2.33479 7.49537ZM14.9395 10.454C14.9045 9.35159 14.7805 8.25381 14.5686 7.17137C14.3614 6.06396 14.0212 4.98563 13.5554 3.9598C12.9202 2.60695 12.1216 1.72448 11.4281 1.5909C11.3083 1.58911 11.1884 1.58911 11.0686 1.5909C10.3751 1.72448 9.57647 2.60695 8.94126 3.96122C8.47596 4.98711 8.13624 6.06545 7.92947 7.1728C7.71768 8.25476 7.59364 9.35207 7.55858 10.454H14.9395ZM13.5554 18.5199C14.0213 17.4941 14.3615 16.4157 14.5686 15.3083C14.7799 14.2263 14.9035 13.129 14.9381 12.0271H7.56C7.59504 13.1295 7.71907 14.2273 7.93089 15.3097C8.13773 16.4166 8.47745 17.4945 8.94268 18.5199C9.63474 19.9921 10.5186 20.9073 11.2505 20.9073C11.9823 20.9073 12.8662 19.9921 13.5568 18.5199H13.5554ZM20.1662 15.0213C20.5692 14.0691 20.8154 13.058 20.8952 12.0271H16.5155C16.5268 14.9803 15.7561 17.8838 14.2816 20.4426C14.5288 20.3611 14.7737 20.2692 15.0163 20.1669C17.3352 19.1843 19.1817 17.3394 20.1662 15.0213ZM15.0163 2.34832C14.7848 2.25064 14.5497 2.162 14.3114 2.08258C15.7637 4.63248 16.5231 7.51815 16.5141 10.4526H20.8923C20.7439 8.69465 20.1182 7.01063 19.0826 5.58237C18.047 4.1541 16.641 3.03584 15.0163 2.34832Z" fill="#FFC935"/>
</svg>
