<svg width="18" height="20" viewBox="0 0 18 20" fill="none" xmlns="http://www.w3.org/2000/svg">
<path d="M0.6875 15.3178L8.0502 19.5686C8.25934 19.6889 8.4964 19.7523 8.7377 19.7523C8.97899 19.7523 9.21605 19.6889 9.4252 19.5686L16.788 15.3178C16.9967 15.1968 17.1701 15.0231 17.2907 14.8142C17.4114 14.6052 17.4751 14.3682 17.4755 14.127V5.62529C17.4751 5.38401 17.4114 5.14705 17.2907 4.93809C17.1701 4.72914 16.9967 4.55549 16.788 4.4345L9.42524 0.183645C9.21609 0.0633245 8.97903 0 8.73774 0C8.49645 0 8.25939 0.0633245 8.05024 0.183645L0.6875 4.4345C0.478735 4.55548 0.305372 4.72913 0.184729 4.93809C0.0640868 5.14705 0.000389111 5.38401 0 5.62529V14.127C0.000389111 14.3683 0.0640868 14.6053 0.184729 14.8142C0.305372 15.0232 0.478735 15.1968 0.6875 15.3178ZM9.4252 1.77138L16.1004 5.62529V13.247L9.4252 9.47405V1.77138ZM8.73551 10.6636L15.4883 14.4805L8.73787 18.3777L1.98498 14.4792L8.73551 10.6636ZM1.375 5.62529L8.0502 1.77138V9.47138L1.375 13.2445V5.62529Z" fill="#FFC935"/>
</svg>
