<svg width="17" height="17" viewBox="0 0 17 17" fill="none" xmlns="http://www.w3.org/2000/svg">
<path d="M0.5 0.5L3.28887 10.261C3.98064 12.6822 5.89707 14.3515 8.41514 14.3515C8.98404 14.3515 9.55284 14.2479 10.1008 14.0583L11.9629 15.9205C12.7356 16.6932 13.9886 16.6932 14.7613 15.9205L15.9205 14.7613C16.6932 13.9886 16.6932 12.7356 15.9205 11.9629L14.0629 10.1053C14.249 9.56293 14.3515 8.99413 14.3515 8.41514C14.3515 5.89707 12.6822 3.98064 10.261 3.28887L0.5 0.5ZM0.5 0.5L7.71554 7.71554M7.71554 7.71554C7.53646 7.89462 7.42574 8.14196 7.42574 8.41514C7.42574 8.96158 7.86869 9.40453 8.41514 9.40453C8.96158 9.40453 9.40453 8.96158 9.40453 8.41514C9.40453 7.86869 8.96158 7.42574 8.41514 7.42574C8.14196 7.42574 7.89462 7.53646 7.71554 7.71554Z" stroke="#FFC935" stroke-linecap="round" stroke-linejoin="round"/>
</svg>
