<svg width="238" height="38" viewBox="0 0 238 38" fill="none" xmlns="http://www.w3.org/2000/svg">
<g clip-path="url(#clip0_320_2713)">
<path d="M16.0003 4C7.17739 4 0 10.7285 0 18.9994C0 27.2709 7.17772 34 16 34C24.8219 34 31.999 27.2709 31.999 18.9994C31.9993 10.7288 24.8223 4 16.0003 4ZM1.61463 18.9994C1.61463 17.0446 2.06185 15.188 2.86018 13.5112L9.72236 31.1372C4.92402 28.9507 1.61463 24.3376 1.61463 18.9994ZM16.0003 32.4866C14.5882 32.4866 13.2253 32.2924 11.9365 31.937L16.2524 20.1792L20.675 31.5362C20.7036 31.6032 20.7385 31.6643 20.7774 31.7219C19.2821 32.2151 17.6755 32.4866 16.0003 32.4866ZM17.9824 12.6764C18.8482 12.6337 19.6293 12.548 19.6293 12.548C20.404 12.462 20.3132 11.3943 19.5372 11.437C19.5372 11.437 17.2073 11.6082 15.7027 11.6082C14.2896 11.6082 11.9135 11.437 11.9135 11.437C11.1382 11.3943 11.0477 12.5053 11.8228 12.548C11.8228 12.548 12.5569 12.6337 13.3313 12.6764L15.5724 18.4336L12.4243 27.2849L7.1867 12.6767C8.05387 12.6344 8.83325 12.5483 8.83325 12.5483C9.60798 12.4626 9.51654 11.3943 8.74081 11.438C8.74081 11.438 6.41197 11.6091 4.90707 11.6091C4.63674 11.6091 4.31854 11.6026 3.98138 11.5929C6.55295 7.93111 10.9749 5.51372 16.0003 5.51372C19.746 5.51372 23.1554 6.85598 25.7144 9.05393C25.6522 9.05081 25.592 9.04302 25.5275 9.04302C24.115 9.04302 23.1122 10.197 23.1122 11.4367C23.1122 12.5477 23.7955 13.4885 24.5247 14.5994C25.0723 15.4978 25.7107 16.6521 25.7107 18.3189C25.7107 19.4735 25.2379 20.8127 24.6158 22.6786L23.181 27.1739L17.9824 12.6764ZM23.2319 30.6571L27.6259 18.7469C28.4475 16.8233 28.7199 15.2849 28.7199 13.9161C28.7199 13.4202 28.6853 12.9592 28.6228 12.5293C29.7466 14.4504 30.386 16.6552 30.3854 19C30.385 23.9751 27.5082 28.3192 23.2319 30.6571Z" fill="#36BDE9"/>
</g>
<path d="M47.12 31L40.432 7.96H43.936L48.784 25.384L53.632 7.976L57.152 7.96L62 25.384L66.848 7.96H70.368L63.664 31H60.336L55.392 13.768L50.448 31H47.12ZM82.0435 31.48C75.1315 31.48 71.1475 26.6 71.1475 19.48C71.1475 12.36 75.1315 7.48 82.0435 7.48C88.9395 7.48 92.9235 12.36 92.9235 19.48C92.9235 26.6 88.9395 31.48 82.0435 31.48ZM82.0435 28.296C86.9395 28.344 89.3715 24.76 89.3715 19.48C89.3715 14.2 86.9395 10.696 82.0435 10.664C77.1475 10.616 74.7155 14.2 74.6995 19.48C74.6835 24.76 77.1475 28.264 82.0435 28.296ZM113.411 31H109.587L105.571 22.728H99.459V31H96.115V7.96H105.427C105.875 7.96 106.595 7.992 107.203 8.088C111.059 8.68 112.979 11.608 112.979 15.336C112.979 18.408 111.667 20.936 109.059 22.072L113.411 31ZM99.459 11.112V19.56H105.299C105.715 19.56 106.275 19.528 106.755 19.416C108.803 18.92 109.571 17.032 109.571 15.336C109.571 13.64 108.803 11.752 106.755 11.272C106.275 11.144 105.715 11.112 105.299 11.112H99.459ZM116.928 31V7.96H124.144C124.56 7.96 125.936 7.96 127.008 8.104C132.416 8.792 135.296 13.608 135.296 19.48C135.296 25.352 132.416 30.168 127.008 30.856C125.936 31 124.56 31 124.144 31H116.928ZM120.352 27.816H124.144C124.88 27.816 126 27.8 126.768 27.656C130.288 26.984 131.744 23.432 131.744 19.48C131.744 15.432 130.224 11.944 126.768 11.304C126 11.16 124.848 11.144 124.144 11.144H120.352V27.816ZM139.021 31V7.96H148.333C148.781 7.96 149.501 7.992 150.109 8.088C153.965 8.68 155.885 11.608 155.885 15.336C155.885 19.08 153.949 21.992 150.109 22.6C149.501 22.696 148.765 22.728 148.333 22.728H142.365V31H139.021ZM142.365 19.56H148.205C148.621 19.56 149.181 19.528 149.661 19.416C151.709 18.92 152.477 17.032 152.477 15.336C152.477 13.64 151.709 11.752 149.661 11.272C149.181 11.144 148.621 11.112 148.205 11.112H142.365V19.56ZM176.38 31H172.556L168.54 22.728H162.428V31H159.084V7.96H168.396C168.844 7.96 169.564 7.992 170.172 8.088C174.028 8.68 175.948 11.608 175.948 15.336C175.948 18.408 174.636 20.936 172.028 22.072L176.38 31ZM162.428 11.112V19.56H168.268C168.684 19.56 169.244 19.528 169.724 19.416C171.772 18.92 172.54 17.032 172.54 15.336C172.54 13.64 171.772 11.752 169.724 11.272C169.244 11.144 168.684 11.112 168.268 11.112H162.428ZM179.896 31V7.96H194.616V11.112H183.24V17.576H192.696V20.728H183.24V27.848H194.616V31H179.896ZM206.373 31.48C201.397 31.48 197.701 28.776 196.949 24.392L200.437 23.864C201.141 26.696 203.573 28.328 206.565 28.328C209.333 28.328 211.717 26.952 211.717 24.648C211.717 22.984 210.517 22.136 208.821 21.624L202.917 19.88C200.613 19.208 197.845 17.832 197.845 14.104C197.845 9.832 201.461 7.48 206.101 7.496C210.773 7.544 214.101 10.008 215.045 14.248L211.461 14.856C210.965 12.248 208.693 10.696 206.053 10.664C203.477 10.616 201.381 11.976 201.381 13.944C201.381 15.864 203.333 16.552 204.965 17L209.221 18.2C211.349 18.792 215.205 19.928 215.205 24.424C215.205 29.064 211.125 31.48 206.373 31.48ZM227.436 31.48C222.46 31.48 218.764 28.776 218.012 24.392L221.5 23.864C222.204 26.696 224.636 28.328 227.628 28.328C230.396 28.328 232.78 26.952 232.78 24.648C232.78 22.984 231.58 22.136 229.884 21.624L223.98 19.88C221.676 19.208 218.908 17.832 218.908 14.104C218.908 9.832 222.524 7.48 227.164 7.496C231.836 7.544 235.164 10.008 236.108 14.248L232.524 14.856C232.028 12.248 229.756 10.696 227.116 10.664C224.54 10.616 222.444 11.976 222.444 13.944C222.444 15.864 224.396 16.552 226.028 17L230.284 18.2C232.412 18.792 236.268 19.928 236.268 24.424C236.268 29.064 232.188 31.48 227.436 31.48Z" fill="white"/>
<defs>
<clipPath id="clip0_320_2713">
<rect width="32" height="30" fill="white" transform="translate(0 4)"/>
</clipPath>
</defs>
</svg>
