<svg width="78" height="70" viewBox="0 0 78 70" fill="none" xmlns="http://www.w3.org/2000/svg">
<rect width="78" height="70" rx="16" fill="white"/>
<path d="M59.25 14.125H20.75C17.775 14.125 15.5 16.4406 15.5 19.4688V51.5312C15.5 54.5594 17.775 56.875 20.75 56.875H25.65C24.775 55.0938 24.25 53.3125 24.25 51.3531C24.075 46.5438 25.475 41.9125 28.625 37.9937L29.15 37.2812C30.55 35.5 31.95 33.7188 32.65 31.9375C33 30.8687 33.875 29.9781 34.75 29.2656C36.85 27.8406 39.825 28.1969 41.575 29.9781C44.2 32.8281 45.775 35.8562 46.3 38.8844C46.3 39.2406 46.475 39.5969 46.475 39.9531C47.35 39.4188 48.4 39.0625 49.45 39.0625C51.375 39.0625 53.125 40.3094 54 42.0906C55.575 45.475 56.1 49.75 55.4 53.4906C55.225 54.5594 54.7 55.8062 54.35 56.6969H59.25C62.225 56.6969 64.5 54.3812 64.5 51.3531V19.4688C64.5 16.4406 62.225 14.125 59.25 14.125ZM25.825 21.9625C25.825 22.1406 25.65 22.3187 25.475 22.4969C25.125 22.8531 24.775 23.0312 24.25 23.0312C23.725 23.0312 23.375 22.8531 23.025 22.4969C22.675 22.1406 22.5 21.7844 22.5 21.25C22.5 20.7156 22.675 20.3594 23.025 20.0031L23.2 19.825C23.375 19.825 23.375 19.6469 23.55 19.6469C23.725 19.4688 23.725 19.4688 23.9 19.4688C24.075 19.4688 24.425 19.4688 24.6 19.4688C24.775 19.4688 24.775 19.4688 24.95 19.6469C25.125 19.6469 25.125 19.825 25.3 19.825L25.475 20.0031C25.65 20.1813 25.825 20.3594 25.825 20.5375C26 20.7156 26 21.0719 26 21.25C26 21.4281 26 21.7844 25.825 21.9625ZM30.725 22.4969C30.375 22.8531 30.025 23.0312 29.5 23.0312C28.975 23.0312 28.625 22.8531 28.275 22.4969C27.925 22.1406 27.75 21.7844 27.75 21.25C27.75 21.0719 27.75 20.7156 27.925 20.5375C28.1 20.3594 28.1 20.1813 28.275 20.0031C28.45 19.825 28.625 19.6469 28.8 19.6469C29.5 19.2906 30.2 19.4688 30.725 20.0031C30.9 20.1813 31.075 20.3594 31.075 20.5375C31.25 20.7156 31.25 21.0719 31.25 21.25C31.25 21.7844 31.075 22.1406 30.725 22.4969ZM36.325 21.9625C36.15 22.1406 36.15 22.3187 35.975 22.4969C35.625 22.8531 35.275 23.0312 34.75 23.0312C34.575 23.0312 34.225 23.0312 34.05 22.8531C33.875 22.675 33.7 22.675 33.525 22.4969C33.35 22.3187 33.175 22.1406 33.175 21.9625C33 21.7844 33 21.4281 33 21.25C33 21.0719 33 20.7156 33.175 20.5375C33.35 20.3594 33.35 20.1813 33.525 20.0031C34.225 19.2906 35.275 19.2906 35.975 20.0031C36.15 20.1813 36.325 20.3594 36.325 20.5375C36.5 20.7156 36.5 21.0719 36.5 21.25C36.5 21.4281 36.5 21.7844 36.325 21.9625Z" fill="#202020"/>
<path d="M50.8498 43.8719C50.4998 43.3375 49.9748 42.9812 49.2748 42.8031C48.5748 42.8031 48.0498 43.1593 47.6998 43.6937L47.5248 44.05C47.5248 44.2281 47.3498 44.4062 47.3498 44.4062C46.4748 45.6531 45.4248 46.3656 43.6748 46.5437H43.4998C43.4998 46.5437 43.4998 46.5437 43.4998 46.3656V45.2968C43.3248 43.3375 43.3248 41.5562 42.9748 39.5968C42.4498 37.1031 41.2248 34.7875 39.1248 32.4718C38.5998 31.9375 37.5498 31.7593 36.8498 32.2937C36.4998 32.4718 36.1498 32.8281 35.9748 33.1843C35.0998 35.5 33.6998 37.2812 31.9498 39.4187L31.4248 40.1312C28.7998 43.5156 27.5748 47.2562 27.7498 51.175C27.9248 57.0531 33.5248 62.2187 39.8248 62.2187C45.5998 62.2187 50.6748 58.3 51.8998 52.7781C52.5998 49.9281 52.2498 46.5437 50.8498 43.8719Z" fill="#EF5345"/>
</svg>
