<svg width="23" height="22" viewBox="0 0 23 22" fill="none" xmlns="http://www.w3.org/2000/svg">
<rect width="22.5804" height="21.7119" rx="8" transform="matrix(-1 0 0 1 22.5804 0)" fill="white"/>
<path d="M14.307 16.1025C14.2333 16.1028 14.1615 16.0782 14.1016 16.0323L11.2894 13.8482L8.4771 16.0323C8.41702 16.0789 8.34463 16.1039 8.27041 16.1037C8.19619 16.1034 8.12397 16.0778 8.06421 16.0307C8.00445 15.9835 7.96023 15.9172 7.93795 15.8414C7.91567 15.7655 7.91648 15.6841 7.94027 15.6088L9.0371 12.1287L6.19444 10.0405C6.13286 9.99532 6.08639 9.93023 6.06181 9.85474C6.03723 9.77925 6.03583 9.69732 6.05781 9.62092C6.07979 9.54452 6.12401 9.47765 6.184 9.43008C6.24398 9.38251 6.3166 9.35674 6.39124 9.35653H9.89821L10.9566 5.86759C10.9794 5.79226 11.0238 5.72661 11.0836 5.68004C11.1434 5.63348 11.2154 5.6084 11.2894 5.6084C11.3633 5.6084 11.4353 5.63348 11.4951 5.68004C11.5549 5.72661 11.5994 5.79226 11.6222 5.86759L12.6805 9.3577H16.1875C16.2622 9.35766 16.335 9.38326 16.3952 9.43073C16.4553 9.47821 16.4997 9.54507 16.5219 9.62153C16.544 9.69799 16.5427 9.78003 16.5181 9.85564C16.4936 9.93124 16.447 9.99643 16.3854 10.0417L13.5416 12.1287L14.6378 15.6078C14.6556 15.6641 14.6606 15.7242 14.6524 15.783C14.6442 15.8418 14.6231 15.8977 14.5908 15.946C14.5584 15.9943 14.5158 16.0337 14.4665 16.061C14.4172 16.0882 14.3625 16.1024 14.307 16.1025Z" fill="#EF5345"/>
</svg>
