<svg width="34" height="33" viewBox="0 0 34 33" fill="none" xmlns="http://www.w3.org/2000/svg">
<rect width="34" height="33" rx="8" transform="matrix(-1 0 0 1 34 0)" fill="#FBEED4"/>
<path d="M22.1744 24.9982C22.0481 24.9987 21.9249 24.9588 21.8223 24.8844L16.9991 21.3467L12.1758 24.8844C12.0728 24.96 11.9487 25.0005 11.8214 25C11.6941 24.9995 11.5702 24.9581 11.4677 24.8817C11.3652 24.8054 11.2894 24.698 11.2512 24.5752C11.213 24.4523 11.2144 24.3204 11.2552 24.1984L13.1363 18.5615L8.26094 15.179C8.15534 15.1058 8.07564 15.0004 8.03348 14.8781C7.99132 14.7559 7.98892 14.6232 8.02662 14.4994C8.06432 14.3756 8.14016 14.2673 8.24304 14.1903C8.34592 14.1132 8.47046 14.0715 8.59847 14.0711H14.6131L16.4283 8.41983C16.4674 8.29782 16.5437 8.19147 16.6462 8.11605C16.7488 8.04063 16.8723 8 16.9991 8C17.1258 8 17.2494 8.04063 17.3519 8.11605C17.4545 8.19147 17.5308 8.29782 17.5699 8.41983L19.385 14.073H25.3997C25.5278 14.073 25.6526 14.1144 25.7558 14.1913C25.859 14.2682 25.9352 14.3765 25.9731 14.5004C26.011 14.6242 26.0088 14.7571 25.9667 14.8796C25.9246 15.002 25.8448 15.1076 25.7391 15.1809L20.8618 18.5615L22.7418 24.1969C22.7723 24.2881 22.7809 24.3854 22.7668 24.4806C22.7528 24.5759 22.7166 24.6664 22.6611 24.7446C22.6057 24.8229 22.5327 24.8868 22.448 24.9308C22.3634 24.9749 22.2696 24.998 22.1744 24.9982Z" fill="#EF5345"/>
</svg>
