<svg width="33" height="31" viewBox="0 0 33 31" fill="none" xmlns="http://www.w3.org/2000/svg">
<rect width="32.625" height="30.4083" rx="8" transform="matrix(-1 0 0 1 32.625 0)" fill="#D3E6FF"/>
<path d="M19.0831 9.10815H13.5415C13.3945 9.10815 13.2535 9.16654 13.1496 9.27047C13.0457 9.37439 12.9873 9.51535 12.9873 9.66232V10.2165H19.6373V9.66232C19.6373 9.51535 19.5789 9.37439 19.475 9.27047C19.3711 9.16654 19.2301 9.10815 19.0831 9.10815Z" fill="#3D8CF3"/>
<path d="M24.625 12.4333C24.6244 11.8456 24.3906 11.2822 23.975 10.8666C23.5595 10.4511 22.996 10.2173 22.4083 10.2167H20.7458V9.6625C20.7454 9.22172 20.5701 8.79912 20.2584 8.48744C19.9467 8.17576 19.5241 8.00046 19.0833 8H13.5417C13.1009 8.00046 12.6783 8.17576 12.3666 8.48744C12.0549 8.79912 11.8796 9.22172 11.8792 9.6625V10.2167H10.2167C9.62897 10.2173 9.06552 10.4511 8.64996 10.8666C8.23439 11.2822 8.00064 11.8456 8 12.4333V14.0958H24.625V12.4333ZM19.6375 10.2167H12.9875V9.6625C12.9875 9.51553 13.0459 9.37457 13.1498 9.27065C13.2537 9.16672 13.3947 9.10833 13.5417 9.10833H19.0833C19.2303 9.10833 19.3713 9.16672 19.4752 9.27065C19.5791 9.37457 19.6375 9.51553 19.6375 9.6625V10.2167ZM19.0833 15.4813C19.0833 15.7017 18.9958 15.9131 18.8399 16.069C18.684 16.2249 18.4725 16.3125 18.2521 16.3125H14.3729C14.1525 16.3125 13.941 16.2249 13.7851 16.069C13.6292 15.9131 13.5417 15.7017 13.5417 15.4813V15.3427C13.5417 15.306 13.5271 15.2707 13.5011 15.2447C13.4751 15.2188 13.4399 15.2042 13.4031 15.2042H8V20.1917C8 20.7796 8.23354 21.3434 8.64925 21.7591C9.06495 22.1748 9.62877 22.4083 10.2167 22.4083H22.4083C22.9962 22.4083 23.56 22.1748 23.9758 21.7591C24.3915 21.3434 24.625 20.7796 24.625 20.1917V15.2042H19.2219C19.1851 15.2042 19.1499 15.2188 19.1239 15.2447C19.0979 15.2707 19.0833 15.306 19.0833 15.3427V15.4813Z" fill="#3D8CF3"/>
</svg>
