<svg width="17" height="17" viewBox="0 0 17 17" fill="none" xmlns="http://www.w3.org/2000/svg">
<g clip-path="url(#clip0_612_2240)">
<path d="M8.5 0.588867C12.8694 0.588867 16.4111 4.13058 16.4111 8.5C16.4111 12.8694 12.8694 16.4111 8.5 16.4111C4.13058 16.4111 0.588867 12.8694 0.588867 8.5C0.588867 4.13058 4.13058 0.588867 8.5 0.588867Z" stroke="white" stroke-width="1.17692"/>
<path fill-rule="evenodd" clip-rule="evenodd" d="M4.46223 8.04572C6.56842 7.12299 7.97287 6.51468 8.67559 6.22077C10.682 5.38159 11.0989 5.23582 11.3706 5.23101C11.4304 5.22995 11.564 5.24484 11.6506 5.31547C11.7237 5.37511 11.7438 5.45567 11.7534 5.51222C11.7631 5.56876 11.775 5.69757 11.7655 5.79821C11.6568 6.94698 11.1863 9.73472 10.947 11.0213C10.8457 11.5658 10.6463 11.7483 10.4532 11.7662C10.0337 11.805 9.71508 11.4874 9.30871 11.2195C8.67284 10.8004 8.31361 10.5394 7.69638 10.1304C6.98306 9.65777 7.44547 9.39798 7.85199 8.97341C7.95838 8.86229 9.80696 7.17152 9.84274 7.01814C9.84722 6.99896 9.85137 6.92746 9.80912 6.8897C9.76688 6.85194 9.70453 6.86485 9.65954 6.87512C9.59576 6.88968 8.57994 7.56483 6.61207 8.90058C6.32373 9.09967 6.06256 9.19668 5.82856 9.19159C5.5706 9.18599 5.07438 9.04493 4.7055 8.92435C4.25304 8.77646 3.89344 8.69827 3.92475 8.4471C3.94106 8.31628 4.12022 8.18248 4.46223 8.04572Z" fill="white"/>
</g>
<defs>
<clipPath id="clip0_612_2240">
<rect width="17" height="17" fill="white"/>
</clipPath>
</defs>
</svg>
