<svg width="14" height="11" viewBox="0 0 14 11" fill="none" xmlns="http://www.w3.org/2000/svg">
<path d="M6.99992 7.4991C8.32234 7.4991 9.39437 6.42707 9.39437 5.10465C9.39437 3.78224 8.32234 2.71021 6.99992 2.71021C5.6775 2.71021 4.60547 3.78224 4.60547 5.10465C4.60547 6.42707 5.6775 7.4991 6.99992 7.4991Z" stroke="#222222"/>
<path d="M7 0.5C8.38967 0.500003 9.64907 1.11171 10.6611 1.83984C11.677 2.57072 12.4866 3.44976 12.9873 4.05762C13.2166 4.33601 13.4999 4.64386 13.5 5.10449C13.5 5.56523 13.2166 5.87295 12.9873 6.15137C12.4866 6.75926 11.6771 7.63914 10.6611 8.37012C9.6491 9.0982 8.3896 9.70996 7 9.70996C5.6104 9.70996 4.3509 9.0982 3.33887 8.37012C2.32285 7.63914 1.51337 6.75926 1.0127 6.15137C0.78337 5.87293 0.5 5.56524 0.5 5.10449C0.500114 4.64388 0.783409 4.33601 1.0127 4.05762C1.51338 3.44975 2.323 2.57072 3.33887 1.83984C4.35093 1.1117 5.61031 0.5 7 0.5Z" stroke="#222222"/>
</svg>
