<svg width="12" height="12" viewBox="0 0 12 12" fill="none" xmlns="http://www.w3.org/2000/svg">
<path d="M5.33568 2.92934V6.66432H8.45705V5.3304H6.6696V2.92934H5.33568ZM10.2445 1.75549C9.11901 0.631394 7.59334 0 6.00264 0C4.41193 0 2.88627 0.631394 1.76077 1.75549L1.33392 2.20235L0 0.868435V4.66344H3.77499L2.25432 3.14277L2.70119 2.69591C3.44719 1.95745 4.42028 1.49193 5.46338 1.37451C6.50648 1.25709 7.55871 1.49461 8.45022 2.04873C9.34173 2.60285 10.0205 3.44123 10.3769 4.42854C10.7334 5.41586 10.7467 6.49448 10.4148 7.4903C10.0828 8.48612 9.425 9.34103 8.54746 9.91701C7.66991 10.493 6.62387 10.7564 5.57819 10.6648C4.53251 10.5732 3.54821 10.1319 2.78418 9.4121C2.02016 8.6923 1.521 7.73603 1.36727 6.69766H0.033348C0.205086 8.15966 0.908055 9.50758 2.00862 10.4852C3.10918 11.4628 4.53059 12.0019 6.00264 12C7.18908 11.999 8.3486 11.6463 9.33476 10.9867C10.3209 10.327 11.0895 9.38994 11.5434 8.29375C11.9973 7.19757 12.1161 5.99146 11.8849 4.82775C11.6538 3.66405 11.0829 2.59495 10.2445 1.75549Z" fill="#202020"/>
</svg>
